<svg width="2000" height="784" viewBox="0 0 2000 784" fill="none" xmlns="http://www.w3.org/2000/svg">
<rect width="2000" height="784" fill="#6664B8"/>
<path d="M374 296C374 290.477 378.477 286 384 286H412C417.523 286 422 290.477 422 296V324C422 329.523 417.523 334 412 334H384C378.477 334 374 329.523 374 324V296Z" fill="white" fill-opacity="0.1"/>
<path d="M386 302C386 299.791 387.791 298 390 298H406C408.209 298 410 299.791 410 302V318C410 320.209 408.209 322 406 322H390C387.791 322 386 320.209 386 318V302Z" fill="white"/>
<path d="M376.523 367.455V364.591H401.835V367.455H390.773V399.5H387.585V367.455H376.523ZM411.282 400.097C409.703 400.097 408.26 399.79 406.953 399.176C405.646 398.551 404.606 397.653 403.833 396.483C403.061 395.301 402.674 393.869 402.674 392.188C402.674 390.892 402.919 389.801 403.407 388.915C403.896 388.028 404.589 387.301 405.487 386.733C406.385 386.165 407.447 385.716 408.674 385.386C409.902 385.057 411.254 384.801 412.731 384.619C414.197 384.437 415.436 384.278 416.447 384.142C417.47 384.006 418.248 383.79 418.782 383.494C419.316 383.199 419.583 382.722 419.583 382.062V381.449C419.583 379.665 419.049 378.261 417.981 377.239C416.924 376.205 415.402 375.688 413.413 375.688C411.527 375.688 409.987 376.102 408.794 376.932C407.612 377.761 406.782 378.739 406.305 379.864L403.424 378.824C404.015 377.392 404.833 376.25 405.879 375.398C406.924 374.534 408.095 373.915 409.39 373.54C410.686 373.153 411.998 372.96 413.328 372.96C414.328 372.96 415.367 373.091 416.447 373.352C417.538 373.614 418.549 374.068 419.481 374.716C420.413 375.352 421.169 376.244 421.748 377.392C422.328 378.528 422.617 379.972 422.617 381.722V399.5H419.583V395.358H419.396C419.032 396.131 418.492 396.881 417.777 397.608C417.061 398.335 416.163 398.932 415.083 399.398C414.004 399.864 412.737 400.097 411.282 400.097ZM411.691 397.318C413.305 397.318 414.703 396.96 415.885 396.244C417.066 395.528 417.975 394.58 418.612 393.398C419.26 392.205 419.583 390.892 419.583 389.46V385.676C419.356 385.892 418.975 386.085 418.441 386.256C417.919 386.426 417.311 386.58 416.617 386.716C415.936 386.841 415.254 386.949 414.572 387.04C413.89 387.131 413.277 387.21 412.731 387.278C411.254 387.46 409.992 387.744 408.947 388.131C407.902 388.517 407.1 389.051 406.544 389.733C405.987 390.403 405.708 391.267 405.708 392.324C405.708 393.915 406.277 395.148 407.413 396.023C408.549 396.886 409.975 397.318 411.691 397.318ZM432.874 364.591V399.5H429.84V364.591H432.874ZM442.815 389.614L442.781 385.642H443.463L455.736 373.318H459.571L447.452 385.455L447.179 385.506L442.815 389.614ZM440.054 399.5V364.591H443.088V399.5H440.054ZM456.367 399.5L445.73 386.051L447.912 383.955L460.253 399.5H456.367ZM464.459 399.5V373.318H467.51V399.5H464.459ZM466.01 368.818C465.385 368.818 464.851 368.608 464.407 368.188C463.964 367.756 463.743 367.239 463.743 366.636C463.743 366.034 463.964 365.523 464.407 365.102C464.851 364.67 465.385 364.455 466.01 364.455C466.635 364.455 467.169 364.67 467.612 365.102C468.055 365.523 468.277 366.034 468.277 366.636C468.277 367.239 468.055 367.756 467.612 368.188C467.169 368.608 466.635 368.818 466.01 368.818ZM477.719 383.136V399.5H474.685V373.318H477.634V377.426H477.907C478.521 376.085 479.475 375.011 480.771 374.205C482.077 373.386 483.691 372.977 485.612 372.977C487.373 372.977 488.918 373.347 490.248 374.085C491.589 374.812 492.629 375.886 493.367 377.307C494.117 378.727 494.492 380.472 494.492 382.54V399.5H491.458V382.727C491.458 380.58 490.856 378.881 489.651 377.631C488.458 376.381 486.856 375.756 484.844 375.756C483.469 375.756 482.248 376.051 481.18 376.642C480.112 377.233 479.265 378.085 478.64 379.199C478.026 380.301 477.719 381.614 477.719 383.136ZM511.622 409.864C509.838 409.864 508.276 409.631 506.935 409.165C505.594 408.71 504.463 408.085 503.543 407.29C502.622 406.494 501.907 405.602 501.395 404.614L503.884 402.977C504.259 403.636 504.759 404.284 505.384 404.92C506.02 405.557 506.844 406.085 507.855 406.506C508.878 406.926 510.134 407.136 511.622 407.136C513.941 407.136 515.81 406.557 517.23 405.398C518.662 404.239 519.378 402.437 519.378 399.994V394.097H519.105C518.753 394.892 518.247 395.687 517.588 396.483C516.929 397.267 516.066 397.92 514.997 398.443C513.941 398.966 512.628 399.227 511.06 399.227C508.969 399.227 507.111 398.71 505.486 397.676C503.872 396.642 502.6 395.165 501.668 393.244C500.747 391.312 500.287 389.011 500.287 386.341C500.287 383.693 500.736 381.364 501.634 379.352C502.543 377.341 503.81 375.773 505.435 374.648C507.06 373.523 508.952 372.96 511.111 372.96C512.713 372.96 514.043 373.244 515.1 373.812C516.157 374.369 517.003 375.062 517.639 375.892C518.287 376.722 518.793 377.528 519.157 378.312H519.463V373.318H522.429V400.182C522.429 402.398 521.958 404.222 521.014 405.653C520.071 407.085 518.787 408.142 517.162 408.824C515.537 409.517 513.691 409.864 511.622 409.864ZM511.418 396.449C513.1 396.449 514.537 396.045 515.73 395.239C516.924 394.42 517.838 393.25 518.475 391.727C519.111 390.205 519.429 388.392 519.429 386.29C519.429 384.244 519.117 382.432 518.492 380.852C517.867 379.261 516.958 378.011 515.764 377.102C514.583 376.182 513.134 375.722 511.418 375.722C509.668 375.722 508.191 376.193 506.986 377.136C505.782 378.08 504.872 379.352 504.259 380.955C503.645 382.545 503.338 384.324 503.338 386.29C503.338 388.29 503.651 390.057 504.276 391.591C504.901 393.114 505.816 394.307 507.02 395.17C508.225 396.023 509.691 396.449 511.418 396.449ZM561.85 373.318C561.657 371.375 560.799 369.83 559.276 368.682C557.754 367.534 555.839 366.96 553.532 366.96C551.907 366.96 550.475 367.239 549.237 367.795C548.009 368.352 547.043 369.125 546.339 370.114C545.646 371.091 545.299 372.205 545.299 373.455C545.299 374.375 545.498 375.182 545.896 375.875C546.293 376.568 546.828 377.165 547.498 377.665C548.18 378.153 548.93 378.574 549.748 378.926C550.578 379.278 551.413 379.574 552.254 379.812L555.936 380.869C557.049 381.176 558.163 381.568 559.276 382.045C560.39 382.523 561.407 383.125 562.328 383.852C563.259 384.568 564.004 385.449 564.561 386.494C565.129 387.528 565.413 388.773 565.413 390.227C565.413 392.091 564.93 393.767 563.964 395.256C562.998 396.744 561.612 397.926 559.805 398.801C557.998 399.665 555.833 400.097 553.311 400.097C550.936 400.097 548.873 399.705 547.123 398.92C545.373 398.125 543.998 397.028 542.998 395.631C541.998 394.233 541.436 392.614 541.311 390.773H544.583C544.697 392.148 545.151 393.312 545.947 394.267C546.742 395.222 547.776 395.949 549.049 396.449C550.322 396.937 551.742 397.182 553.311 397.182C555.049 397.182 556.595 396.892 557.947 396.312C559.311 395.722 560.379 394.903 561.151 393.858C561.936 392.801 562.328 391.574 562.328 390.176C562.328 388.994 562.021 388.006 561.407 387.21C560.793 386.403 559.936 385.727 558.833 385.182C557.742 384.636 556.475 384.153 555.032 383.733L550.856 382.506C548.117 381.687 545.992 380.557 544.481 379.114C542.97 377.67 542.214 375.83 542.214 373.591C542.214 371.716 542.714 370.068 543.714 368.648C544.725 367.216 546.089 366.102 547.805 365.307C549.532 364.5 551.47 364.097 553.617 364.097C555.788 364.097 557.708 364.494 559.379 365.29C561.049 366.085 562.373 367.182 563.35 368.58C564.339 369.966 564.867 371.545 564.936 373.318H561.85ZM581.831 400.045C579.49 400.045 577.451 399.46 575.712 398.29C573.985 397.119 572.644 395.517 571.689 393.483C570.735 391.449 570.258 389.131 570.258 386.528C570.258 383.903 570.74 381.568 571.706 379.523C572.684 377.477 574.036 375.875 575.763 374.716C577.49 373.545 579.496 372.96 581.78 372.96C583.53 372.96 585.115 373.301 586.536 373.983C587.956 374.653 589.127 375.602 590.047 376.83C590.979 378.045 591.564 379.466 591.803 381.091H588.735C588.417 379.614 587.65 378.352 586.434 377.307C585.229 376.25 583.695 375.722 581.831 375.722C580.161 375.722 578.684 376.176 577.4 377.085C576.115 377.983 575.11 379.239 574.383 380.852C573.667 382.455 573.309 384.312 573.309 386.426C573.309 388.551 573.661 390.432 574.365 392.068C575.07 393.693 576.059 394.966 577.331 395.886C578.615 396.807 580.115 397.267 581.831 397.267C582.99 397.267 584.047 397.051 585.002 396.619C585.968 396.176 586.775 395.551 587.422 394.744C588.081 393.937 588.525 392.977 588.752 391.864H591.82C591.593 393.443 591.03 394.852 590.133 396.091C589.246 397.318 588.093 398.284 586.672 398.989C585.263 399.693 583.65 400.045 581.831 400.045ZM597.474 399.5V373.318H600.423V377.341H600.645C601.168 376.023 602.077 374.96 603.372 374.153C604.679 373.335 606.156 372.926 607.804 372.926C608.054 372.926 608.332 372.932 608.639 372.943C608.946 372.955 609.202 372.966 609.406 372.977V376.062C609.27 376.04 609.031 376.006 608.69 375.96C608.349 375.915 607.98 375.892 607.582 375.892C606.219 375.892 605.003 376.182 603.935 376.761C602.878 377.33 602.043 378.119 601.429 379.131C600.815 380.142 600.509 381.295 600.509 382.591V399.5H597.474ZM613.769 399.5V373.318H616.821V399.5H613.769ZM615.321 368.818C614.696 368.818 614.162 368.608 613.718 368.188C613.275 367.756 613.054 367.239 613.054 366.636C613.054 366.034 613.275 365.523 613.718 365.102C614.162 364.67 614.696 364.455 615.321 364.455C615.946 364.455 616.48 364.67 616.923 365.102C617.366 365.523 617.588 366.034 617.588 366.636C617.588 367.239 617.366 367.756 616.923 368.188C616.48 368.608 615.946 368.818 615.321 368.818ZM623.996 409.318V373.318H626.945V378.312H627.303C627.667 377.528 628.167 376.727 628.803 375.909C629.439 375.08 630.28 374.381 631.326 373.812C632.383 373.244 633.712 372.96 635.314 372.96C637.474 372.96 639.36 373.528 640.974 374.665C642.599 375.79 643.86 377.369 644.758 379.403C645.667 381.426 646.121 383.784 646.121 386.477C646.121 389.182 645.667 391.551 644.758 393.585C643.86 395.619 642.599 397.205 640.974 398.341C639.36 399.477 637.485 400.045 635.349 400.045C633.769 400.045 632.445 399.761 631.377 399.193C630.32 398.625 629.462 397.926 628.803 397.097C628.155 396.256 627.655 395.437 627.303 394.642H627.03V409.318H623.996ZM626.996 386.426C626.996 388.54 627.309 390.415 627.934 392.051C628.57 393.676 629.479 394.955 630.661 395.886C631.854 396.807 633.297 397.267 634.991 397.267C636.729 397.267 638.195 396.79 639.388 395.835C640.593 394.869 641.508 393.568 642.133 391.932C642.769 390.295 643.087 388.46 643.087 386.426C643.087 384.415 642.775 382.602 642.15 380.989C641.536 379.375 640.627 378.097 639.422 377.153C638.218 376.199 636.741 375.722 634.991 375.722C633.286 375.722 631.837 376.182 630.644 377.102C629.451 378.011 628.542 379.273 627.917 380.886C627.303 382.489 626.996 384.335 626.996 386.426ZM662.242 373.318V375.96H649.747V373.318H662.242ZM653.651 367.045H656.702V392.665C656.702 393.756 656.889 394.614 657.264 395.239C657.639 395.852 658.128 396.29 658.73 396.551C659.333 396.801 659.975 396.926 660.656 396.926C661.054 396.926 661.395 396.903 661.679 396.858C661.963 396.801 662.213 396.744 662.429 396.688L663.077 399.432C662.781 399.545 662.418 399.648 661.986 399.739C661.554 399.841 661.02 399.892 660.384 399.892C659.27 399.892 658.196 399.648 657.162 399.159C656.139 398.67 655.298 397.943 654.639 396.977C653.98 396.011 653.651 394.812 653.651 393.381V367.045ZM685.406 379.062L682.628 379.847C682.355 379.062 681.968 378.352 681.468 377.716C680.968 377.08 680.315 376.574 679.508 376.199C678.713 375.824 677.724 375.636 676.542 375.636C674.77 375.636 673.315 376.057 672.179 376.898C671.042 377.739 670.474 378.824 670.474 380.153C670.474 381.278 670.861 382.193 671.633 382.898C672.417 383.591 673.622 384.142 675.247 384.551L679.201 385.523C681.395 386.057 683.037 386.903 684.128 388.062C685.23 389.222 685.781 390.676 685.781 392.426C685.781 393.903 685.372 395.216 684.554 396.364C683.736 397.511 682.593 398.415 681.128 399.074C679.673 399.722 677.986 400.045 676.065 400.045C673.508 400.045 671.4 399.472 669.741 398.324C668.082 397.165 667.02 395.494 666.554 393.312L669.468 392.597C669.843 394.153 670.576 395.33 671.667 396.125C672.77 396.92 674.218 397.318 676.014 397.318C678.025 397.318 679.633 396.869 680.838 395.972C682.042 395.062 682.645 393.926 682.645 392.562C682.645 391.506 682.292 390.619 681.588 389.903C680.883 389.176 679.815 388.642 678.383 388.301L674.105 387.278C671.832 386.733 670.15 385.869 669.059 384.688C667.968 383.506 667.423 382.04 667.423 380.29C667.423 378.847 667.815 377.58 668.599 376.489C669.383 375.386 670.463 374.523 671.838 373.898C673.213 373.273 674.781 372.96 676.542 372.96C678.94 372.96 680.855 373.506 682.287 374.597C683.73 375.676 684.77 377.165 685.406 379.062Z" fill="white"/>
<path d="M397.591 421.318C397.398 419.375 396.54 417.83 395.017 416.682C393.494 415.534 391.58 414.96 389.273 414.96C387.648 414.96 386.216 415.239 384.977 415.795C383.75 416.352 382.784 417.125 382.08 418.114C381.386 419.091 381.04 420.205 381.04 421.455C381.04 422.375 381.239 423.182 381.636 423.875C382.034 424.568 382.568 425.165 383.239 425.665C383.92 426.153 384.67 426.574 385.489 426.926C386.318 427.278 387.153 427.574 387.994 427.812L391.676 428.869C392.79 429.176 393.903 429.568 395.017 430.045C396.131 430.523 397.148 431.125 398.068 431.852C399 432.568 399.744 433.449 400.301 434.494C400.869 435.528 401.153 436.773 401.153 438.227C401.153 440.091 400.67 441.767 399.705 443.256C398.739 444.744 397.352 445.926 395.545 446.801C393.739 447.665 391.574 448.097 389.051 448.097C386.676 448.097 384.614 447.705 382.864 446.92C381.114 446.125 379.739 445.028 378.739 443.631C377.739 442.233 377.176 440.614 377.051 438.773H380.324C380.438 440.148 380.892 441.312 381.688 442.267C382.483 443.222 383.517 443.949 384.79 444.449C386.062 444.937 387.483 445.182 389.051 445.182C390.79 445.182 392.335 444.892 393.688 444.312C395.051 443.722 396.119 442.903 396.892 441.858C397.676 440.801 398.068 439.574 398.068 438.176C398.068 436.994 397.761 436.006 397.148 435.21C396.534 434.403 395.676 433.727 394.574 433.182C393.483 432.636 392.216 432.153 390.773 431.733L386.597 430.506C383.858 429.687 381.733 428.557 380.222 427.114C378.71 425.67 377.955 423.83 377.955 421.591C377.955 419.716 378.455 418.068 379.455 416.648C380.466 415.216 381.83 414.102 383.545 413.307C385.273 412.5 387.21 412.097 389.358 412.097C391.528 412.097 393.449 412.494 395.119 413.29C396.79 414.085 398.114 415.182 399.091 416.58C400.08 417.966 400.608 419.545 400.676 421.318H397.591ZM417.657 421.318V423.96H405.163V421.318H417.657ZM409.066 415.045H412.117V440.665C412.117 441.756 412.305 442.614 412.68 443.239C413.055 443.852 413.544 444.29 414.146 444.551C414.748 444.801 415.39 444.926 416.072 444.926C416.47 444.926 416.811 444.903 417.095 444.858C417.379 444.801 417.629 444.744 417.845 444.688L418.492 447.432C418.197 447.545 417.833 447.648 417.402 447.739C416.97 447.841 416.436 447.892 415.799 447.892C414.686 447.892 413.612 447.648 412.578 447.159C411.555 446.67 410.714 445.943 410.055 444.977C409.396 444.011 409.066 442.812 409.066 441.381V415.045ZM440.336 437.494V421.318H443.37V447.5H440.336V443.153H440.097C439.484 444.494 438.512 445.614 437.182 446.511C435.853 447.398 434.228 447.841 432.307 447.841C430.637 447.841 429.154 447.477 427.859 446.75C426.563 446.011 425.546 444.932 424.807 443.511C424.069 442.091 423.699 440.347 423.699 438.278V421.318H426.734V438.091C426.734 440.136 427.336 441.784 428.54 443.034C429.745 444.273 431.29 444.892 433.177 444.892C434.359 444.892 435.495 444.608 436.586 444.04C437.677 443.472 438.574 442.642 439.279 441.551C439.984 440.449 440.336 439.097 440.336 437.494ZM459.98 448.045C457.833 448.045 455.952 447.477 454.338 446.341C452.725 445.205 451.463 443.619 450.554 441.585C449.656 439.551 449.208 437.182 449.208 434.477C449.208 431.784 449.656 429.426 450.554 427.403C451.463 425.369 452.73 423.79 454.355 422.665C455.98 421.528 457.872 420.96 460.031 420.96C461.622 420.96 462.946 421.244 464.003 421.812C465.06 422.369 465.906 423.062 466.543 423.892C467.179 424.722 467.673 425.528 468.026 426.312H468.298V412.591H471.35V447.5H468.384V442.642H468.026C467.673 443.437 467.173 444.256 466.526 445.097C465.878 445.926 465.02 446.625 463.952 447.193C462.895 447.761 461.571 448.045 459.98 448.045ZM460.338 445.267C462.031 445.267 463.475 444.807 464.668 443.886C465.861 442.955 466.77 441.676 467.395 440.051C468.031 438.415 468.35 436.54 468.35 434.426C468.35 432.335 468.037 430.489 467.412 428.886C466.787 427.273 465.878 426.011 464.685 425.102C463.492 424.182 462.043 423.722 460.338 423.722C458.588 423.722 457.111 424.199 455.906 425.153C454.713 426.097 453.804 427.375 453.179 428.989C452.565 430.602 452.259 432.415 452.259 434.426C452.259 436.46 452.571 438.295 453.196 439.932C453.821 441.568 454.73 442.869 455.923 443.835C457.128 444.79 458.6 445.267 460.338 445.267ZM479.177 447.5V421.318H482.228V447.5H479.177ZM480.728 416.818C480.103 416.818 479.569 416.608 479.126 416.188C478.683 415.756 478.461 415.239 478.461 414.636C478.461 414.034 478.683 413.523 479.126 413.102C479.569 412.67 480.103 412.455 480.728 412.455C481.353 412.455 481.887 412.67 482.331 413.102C482.774 413.523 482.995 414.034 482.995 414.636C482.995 415.239 482.774 415.756 482.331 416.188C481.887 416.608 481.353 416.818 480.728 416.818ZM499.58 448.045C497.319 448.045 495.319 447.472 493.58 446.324C491.853 445.176 490.501 443.591 489.523 441.568C488.546 439.534 488.058 437.187 488.058 434.528C488.058 431.847 488.546 429.489 489.523 427.455C490.501 425.409 491.853 423.818 493.58 422.682C495.319 421.534 497.319 420.96 499.58 420.96C501.842 420.96 503.836 421.534 505.563 422.682C507.29 423.83 508.643 425.42 509.62 427.455C510.609 429.489 511.103 431.847 511.103 434.528C511.103 437.187 510.614 439.534 509.637 441.568C508.66 443.591 507.302 445.176 505.563 446.324C503.836 447.472 501.842 448.045 499.58 448.045ZM499.58 445.267C501.398 445.267 502.938 444.778 504.2 443.801C505.461 442.824 506.415 441.523 507.063 439.898C507.722 438.273 508.052 436.483 508.052 434.528C508.052 432.574 507.722 430.778 507.063 429.142C506.415 427.506 505.461 426.193 504.2 425.205C502.938 424.216 501.398 423.722 499.58 423.722C497.773 423.722 496.234 424.216 494.961 425.205C493.7 426.193 492.739 427.506 492.08 429.142C491.433 430.778 491.109 432.574 491.109 434.528C491.109 436.483 491.433 438.273 492.08 439.898C492.739 441.523 493.7 442.824 494.961 443.801C496.222 444.778 497.762 445.267 499.58 445.267Z" fill="white"/>
<path d="M375.932 491V476.455H384.369V477.648H377.26V483.124H383.922V484.317H377.26V489.807H384.511V491H375.932ZM388.359 484.182V491H387.095V480.091H388.324V481.803H388.437C388.693 481.244 389.091 480.796 389.63 480.46C390.175 480.119 390.847 479.949 391.647 479.949C392.381 479.949 393.025 480.103 393.579 480.411C394.138 480.714 394.571 481.161 394.879 481.753C395.191 482.345 395.348 483.071 395.348 483.933V491H394.083V484.011C394.083 483.116 393.833 482.409 393.331 481.888C392.833 481.367 392.166 481.107 391.328 481.107C390.755 481.107 390.246 481.23 389.801 481.476C389.356 481.722 389.003 482.077 388.743 482.541C388.487 483 388.359 483.547 388.359 484.182ZM402.525 480.091V481.192H397.319V480.091H402.525ZM398.945 477.477H400.216V488.152C400.216 488.607 400.294 488.964 400.451 489.224C400.607 489.48 400.81 489.662 401.061 489.771C401.312 489.875 401.58 489.928 401.864 489.928C402.03 489.928 402.172 489.918 402.29 489.899C402.408 489.875 402.513 489.852 402.603 489.828L402.873 490.972C402.749 491.019 402.598 491.062 402.418 491.099C402.238 491.142 402.016 491.163 401.75 491.163C401.286 491.163 400.839 491.062 400.408 490.858C399.982 490.654 399.632 490.351 399.357 489.949C399.082 489.546 398.945 489.047 398.945 488.45V477.477ZM409.24 491.227C408.222 491.227 407.341 490.991 406.598 490.517C405.854 490.039 405.279 489.378 404.872 488.536C404.469 487.688 404.268 486.713 404.268 485.609C404.268 484.511 404.469 483.536 404.872 482.683C405.279 481.826 405.84 481.156 406.555 480.673C407.275 480.186 408.106 479.942 409.048 479.942C409.64 479.942 410.21 480.051 410.76 480.268C411.309 480.482 411.801 480.811 412.237 481.256C412.677 481.696 413.025 482.252 413.281 482.925C413.537 483.592 413.664 484.383 413.664 485.297V485.922H405.142V484.807H412.372C412.372 484.106 412.23 483.476 411.946 482.918C411.666 482.354 411.276 481.909 410.774 481.582C410.277 481.256 409.701 481.092 409.048 481.092C408.357 481.092 407.748 481.277 407.223 481.646C406.697 482.016 406.285 482.503 405.987 483.109C405.693 483.715 405.544 484.378 405.539 485.098V485.766C405.539 486.632 405.689 487.39 405.987 488.038C406.29 488.682 406.718 489.182 407.272 489.537C407.826 489.892 408.482 490.07 409.24 490.07C409.756 490.07 410.208 489.989 410.596 489.828C410.989 489.667 411.318 489.452 411.583 489.182C411.853 488.907 412.057 488.607 412.194 488.28L413.395 488.67C413.229 489.13 412.957 489.554 412.578 489.942C412.204 490.33 411.735 490.643 411.172 490.879C410.613 491.111 409.969 491.227 409.24 491.227ZM416.001 491V480.091H417.23V481.767H417.322C417.54 481.218 417.919 480.775 418.458 480.439C419.003 480.098 419.618 479.928 420.305 479.928C420.409 479.928 420.525 479.93 420.653 479.935C420.781 479.939 420.887 479.944 420.973 479.949V481.234C420.916 481.225 420.816 481.211 420.674 481.192C420.532 481.173 420.378 481.163 420.213 481.163C419.645 481.163 419.138 481.284 418.693 481.526C418.252 481.762 417.904 482.091 417.649 482.513C417.393 482.934 417.265 483.415 417.265 483.955V491H416.001ZM422.681 495.091V480.091H423.909V482.172H424.059C424.21 481.845 424.418 481.511 424.684 481.17C424.949 480.825 425.299 480.534 425.735 480.297C426.175 480.06 426.729 479.942 427.397 479.942C428.296 479.942 429.082 480.179 429.755 480.652C430.432 481.121 430.957 481.779 431.331 482.626C431.71 483.469 431.9 484.452 431.9 485.574C431.9 486.701 431.71 487.688 431.331 488.536C430.957 489.383 430.432 490.044 429.755 490.517C429.082 490.991 428.301 491.227 427.411 491.227C426.753 491.227 426.201 491.109 425.756 490.872C425.316 490.635 424.958 490.344 424.684 489.999C424.414 489.648 424.205 489.307 424.059 488.976H423.945V495.091H422.681ZM423.931 485.553C423.931 486.433 424.061 487.214 424.321 487.896C424.587 488.573 424.965 489.106 425.458 489.494C425.955 489.878 426.556 490.07 427.262 490.07C427.986 490.07 428.597 489.871 429.094 489.473C429.596 489.071 429.977 488.528 430.238 487.847C430.503 487.165 430.635 486.4 430.635 485.553C430.635 484.714 430.505 483.959 430.245 483.287C429.989 482.615 429.61 482.082 429.108 481.689C428.606 481.291 427.991 481.092 427.262 481.092C426.551 481.092 425.948 481.284 425.451 481.668C424.953 482.046 424.575 482.572 424.314 483.244C424.059 483.912 423.931 484.681 423.931 485.553ZM434.224 491V480.091H435.452V481.767H435.545C435.763 481.218 436.141 480.775 436.681 480.439C437.226 480.098 437.841 479.928 438.528 479.928C438.632 479.928 438.748 479.93 438.876 479.935C439.004 479.939 439.11 479.944 439.195 479.949V481.234C439.138 481.225 439.039 481.211 438.897 481.192C438.755 481.173 438.601 481.163 438.435 481.163C437.867 481.163 437.361 481.284 436.915 481.526C436.475 481.762 436.127 482.091 435.871 482.513C435.616 482.934 435.488 483.415 435.488 483.955V491H434.224ZM440.918 491V480.091H442.189V491H440.918ZM441.564 478.216C441.304 478.216 441.081 478.128 440.896 477.953C440.712 477.773 440.619 477.558 440.619 477.307C440.619 477.056 440.712 476.843 440.896 476.668C441.081 476.488 441.304 476.398 441.564 476.398C441.824 476.398 442.047 476.488 442.232 476.668C442.416 476.843 442.509 477.056 442.509 477.307C442.509 477.558 442.416 477.773 442.232 477.953C442.047 478.128 441.824 478.216 441.564 478.216ZM452.413 482.484L451.255 482.811C451.141 482.484 450.98 482.188 450.772 481.923C450.564 481.658 450.291 481.447 449.955 481.291C449.624 481.135 449.212 481.057 448.719 481.057C447.981 481.057 447.375 481.232 446.901 481.582C446.428 481.933 446.191 482.385 446.191 482.939C446.191 483.408 446.352 483.789 446.674 484.082C447.001 484.371 447.503 484.601 448.18 484.771L449.827 485.176C450.741 485.399 451.425 485.751 451.88 486.234C452.339 486.717 452.569 487.323 452.569 488.053C452.569 488.668 452.398 489.215 452.058 489.693C451.717 490.171 451.241 490.548 450.63 490.822C450.024 491.092 449.321 491.227 448.521 491.227C447.455 491.227 446.577 490.988 445.886 490.51C445.194 490.027 444.752 489.331 444.558 488.422L445.772 488.124C445.928 488.772 446.234 489.262 446.688 489.594C447.147 489.925 447.751 490.091 448.499 490.091C449.337 490.091 450.007 489.904 450.509 489.53C451.011 489.151 451.262 488.678 451.262 488.109C451.262 487.669 451.115 487.3 450.822 487.001C450.528 486.698 450.083 486.476 449.487 486.334L447.704 485.908C446.757 485.68 446.056 485.321 445.602 484.828C445.147 484.336 444.92 483.725 444.92 482.996C444.92 482.394 445.083 481.866 445.41 481.412C445.737 480.953 446.186 480.593 446.759 480.332C447.332 480.072 447.986 479.942 448.719 479.942C449.719 479.942 450.516 480.169 451.113 480.624C451.714 481.073 452.147 481.694 452.413 482.484ZM459.298 491.227C458.28 491.227 457.4 490.991 456.656 490.517C455.913 490.039 455.338 489.378 454.93 488.536C454.528 487.688 454.327 486.713 454.327 485.609C454.327 484.511 454.528 483.536 454.93 482.683C455.338 481.826 455.899 481.156 456.614 480.673C457.333 480.186 458.164 479.942 459.107 479.942C459.698 479.942 460.269 480.051 460.818 480.268C461.367 480.482 461.86 480.811 462.295 481.256C462.736 481.696 463.084 482.252 463.339 482.925C463.595 483.592 463.723 484.383 463.723 485.297V485.922H455.2V484.807H462.43C462.43 484.106 462.288 483.476 462.004 482.918C461.725 482.354 461.334 481.909 460.832 481.582C460.335 481.256 459.76 481.092 459.107 481.092C458.415 481.092 457.807 481.277 457.281 481.646C456.756 482.016 456.344 482.503 456.045 483.109C455.752 483.715 455.603 484.378 455.598 485.098V485.766C455.598 486.632 455.747 487.39 456.045 488.038C456.348 488.682 456.777 489.182 457.331 489.537C457.885 489.892 458.541 490.07 459.298 490.07C459.814 490.07 460.267 489.989 460.655 489.828C461.048 489.667 461.377 489.452 461.642 489.182C461.912 488.907 462.116 488.607 462.253 488.28L463.453 488.67C463.287 489.13 463.015 489.554 462.636 489.942C462.262 490.33 461.794 490.643 461.23 490.879C460.671 491.111 460.027 491.227 459.298 491.227ZM471.947 484.168V485.361H465.896V484.168H471.947ZM478.835 495.318C478.092 495.318 477.44 495.221 476.882 495.027C476.323 494.838 475.852 494.577 475.468 494.246C475.085 493.914 474.787 493.543 474.574 493.131L475.61 492.449C475.767 492.723 475.975 492.993 476.235 493.259C476.501 493.524 476.844 493.744 477.265 493.919C477.691 494.094 478.215 494.182 478.835 494.182C479.801 494.182 480.58 493.94 481.172 493.457C481.768 492.974 482.066 492.224 482.066 491.206V488.749H481.953C481.806 489.08 481.595 489.411 481.321 489.743C481.046 490.07 480.686 490.342 480.241 490.56C479.801 490.777 479.254 490.886 478.6 490.886C477.729 490.886 476.955 490.671 476.278 490.24C475.606 489.809 475.075 489.194 474.687 488.393C474.304 487.589 474.112 486.63 474.112 485.517C474.112 484.414 474.299 483.443 474.673 482.605C475.052 481.767 475.58 481.114 476.257 480.645C476.934 480.176 477.722 479.942 478.622 479.942C479.289 479.942 479.843 480.06 480.284 480.297C480.724 480.529 481.077 480.818 481.342 481.163C481.612 481.509 481.823 481.845 481.974 482.172H482.102V480.091H483.338V491.284C483.338 492.207 483.141 492.967 482.748 493.564C482.355 494.161 481.82 494.601 481.143 494.885C480.466 495.174 479.697 495.318 478.835 495.318ZM478.75 489.729C479.45 489.729 480.049 489.561 480.547 489.224C481.044 488.884 481.425 488.396 481.69 487.761C481.955 487.127 482.088 486.372 482.088 485.496C482.088 484.643 481.958 483.888 481.697 483.23C481.437 482.567 481.058 482.046 480.561 481.668C480.068 481.284 479.465 481.092 478.75 481.092C478.02 481.092 477.405 481.289 476.903 481.682C476.401 482.075 476.022 482.605 475.767 483.273C475.511 483.936 475.383 484.677 475.383 485.496C475.383 486.329 475.513 487.065 475.774 487.705C476.034 488.339 476.415 488.836 476.917 489.196C477.419 489.551 478.03 489.729 478.75 489.729ZM486.235 491V480.091H487.464V481.767H487.556C487.774 481.218 488.153 480.775 488.693 480.439C489.237 480.098 489.853 479.928 490.539 479.928C490.644 479.928 490.76 479.93 490.887 479.935C491.015 479.939 491.122 479.944 491.207 479.949V481.234C491.15 481.225 491.051 481.211 490.909 481.192C490.767 481.173 490.613 481.163 490.447 481.163C489.879 481.163 489.372 481.284 488.927 481.526C488.487 481.762 488.139 482.091 487.883 482.513C487.627 482.934 487.5 483.415 487.5 483.955V491H486.235ZM495.962 491.249C495.304 491.249 494.703 491.121 494.158 490.865C493.614 490.605 493.18 490.231 492.858 489.743C492.536 489.25 492.375 488.654 492.375 487.953C492.375 487.413 492.477 486.959 492.681 486.589C492.884 486.22 493.173 485.917 493.547 485.68C493.921 485.444 494.364 485.257 494.875 485.119C495.387 484.982 495.95 484.875 496.566 484.8C497.176 484.724 497.693 484.658 498.114 484.601C498.54 484.544 498.864 484.454 499.087 484.331C499.31 484.208 499.421 484.009 499.421 483.734V483.479C499.421 482.735 499.198 482.151 498.753 481.724C498.313 481.294 497.678 481.078 496.85 481.078C496.064 481.078 495.422 481.251 494.925 481.597C494.433 481.942 494.087 482.349 493.888 482.818L492.688 482.385C492.934 481.788 493.275 481.312 493.711 480.957C494.146 480.598 494.634 480.339 495.174 480.183C495.713 480.022 496.26 479.942 496.814 479.942C497.231 479.942 497.664 479.996 498.114 480.105C498.569 480.214 498.99 480.403 499.378 480.673C499.766 480.938 500.081 481.31 500.323 481.788C500.564 482.262 500.685 482.863 500.685 483.592V491H499.421V489.274H499.343C499.191 489.596 498.966 489.909 498.668 490.212C498.37 490.515 497.996 490.763 497.546 490.957C497.096 491.152 496.568 491.249 495.962 491.249ZM496.132 490.091C496.805 490.091 497.387 489.942 497.88 489.643C498.372 489.345 498.751 488.95 499.016 488.457C499.286 487.96 499.421 487.413 499.421 486.817V485.24C499.326 485.33 499.167 485.411 498.945 485.482C498.727 485.553 498.474 485.616 498.185 485.673C497.901 485.725 497.617 485.77 497.333 485.808C497.049 485.846 496.793 485.879 496.566 485.908C495.95 485.983 495.425 486.102 494.989 486.263C494.553 486.424 494.22 486.646 493.988 486.93C493.756 487.21 493.64 487.57 493.64 488.01C493.64 488.673 493.876 489.187 494.35 489.551C494.823 489.911 495.417 490.091 496.132 490.091ZM507.526 491.227C506.631 491.227 505.848 490.991 505.175 490.517C504.503 490.044 503.978 489.383 503.599 488.536C503.225 487.688 503.038 486.701 503.038 485.574C503.038 484.452 503.225 483.469 503.599 482.626C503.978 481.779 504.505 481.121 505.183 480.652C505.86 480.179 506.648 479.942 507.548 479.942C508.21 479.942 508.762 480.06 509.202 480.297C509.643 480.529 509.996 480.818 510.261 481.163C510.526 481.509 510.732 481.845 510.879 482.172H510.992V476.455H512.263V491H511.028V488.976H510.879C510.732 489.307 510.523 489.648 510.254 489.999C509.984 490.344 509.626 490.635 509.181 490.872C508.741 491.109 508.189 491.227 507.526 491.227ZM507.675 490.07C508.381 490.07 508.982 489.878 509.479 489.494C509.977 489.106 510.355 488.573 510.616 487.896C510.881 487.214 511.013 486.433 511.013 485.553C511.013 484.681 510.883 483.912 510.623 483.244C510.362 482.572 509.984 482.046 509.487 481.668C508.989 481.284 508.386 481.092 507.675 481.092C506.946 481.092 506.331 481.291 505.829 481.689C505.332 482.082 504.953 482.615 504.692 483.287C504.437 483.959 504.309 484.714 504.309 485.553C504.309 486.4 504.439 487.165 504.7 487.847C504.96 488.528 505.339 489.071 505.836 489.473C506.338 489.871 506.951 490.07 507.675 490.07ZM519.826 491.227C518.808 491.227 517.927 490.991 517.184 490.517C516.44 490.039 515.865 489.378 515.458 488.536C515.055 487.688 514.854 486.713 514.854 485.609C514.854 484.511 515.055 483.536 515.458 482.683C515.865 481.826 516.426 481.156 517.141 480.673C517.861 480.186 518.692 479.942 519.634 479.942C520.226 479.942 520.796 480.051 521.346 480.268C521.895 480.482 522.387 480.811 522.823 481.256C523.263 481.696 523.611 482.252 523.867 482.925C524.123 483.592 524.25 484.383 524.25 485.297V485.922H515.728V484.807H522.958C522.958 484.106 522.816 483.476 522.532 482.918C522.252 482.354 521.862 481.909 521.36 481.582C520.863 481.256 520.287 481.092 519.634 481.092C518.943 481.092 518.334 481.277 517.809 481.646C517.283 482.016 516.871 482.503 516.573 483.109C516.279 483.715 516.13 484.378 516.125 485.098V485.766C516.125 486.632 516.275 487.39 516.573 488.038C516.876 488.682 517.304 489.182 517.858 489.537C518.412 489.892 519.068 490.07 519.826 490.07C520.342 490.07 520.794 489.989 521.182 489.828C521.575 489.667 521.904 489.452 522.169 489.182C522.439 488.907 522.643 488.607 522.78 488.28L523.98 488.67C523.815 489.13 523.542 489.554 523.164 489.942C522.79 490.33 522.321 490.643 521.757 490.879C521.199 491.111 520.555 491.227 519.826 491.227ZM536.024 491.227C535.049 491.227 534.199 490.983 533.474 490.496C532.755 490.008 532.196 489.34 531.798 488.493C531.401 487.645 531.202 486.679 531.202 485.595C531.202 484.501 531.403 483.528 531.805 482.676C532.213 481.824 532.776 481.156 533.496 480.673C534.215 480.186 535.051 479.942 536.003 479.942C536.732 479.942 537.393 480.084 537.984 480.368C538.576 480.647 539.064 481.043 539.447 481.554C539.836 482.061 540.08 482.652 540.179 483.33H538.901C538.768 482.714 538.448 482.188 537.942 481.753C537.44 481.312 536.801 481.092 536.024 481.092C535.328 481.092 534.713 481.282 534.178 481.661C533.643 482.035 533.223 482.558 532.92 483.23C532.622 483.898 532.473 484.672 532.473 485.553C532.473 486.438 532.62 487.222 532.913 487.903C533.207 488.58 533.619 489.111 534.149 489.494C534.684 489.878 535.309 490.07 536.024 490.07C536.507 490.07 536.947 489.98 537.345 489.8C537.748 489.615 538.084 489.355 538.354 489.018C538.628 488.682 538.813 488.282 538.908 487.818H540.186C540.091 488.476 539.857 489.063 539.483 489.58C539.114 490.091 538.633 490.493 538.041 490.787C537.454 491.08 536.782 491.227 536.024 491.227ZM546.686 491.227C545.744 491.227 544.911 490.988 544.186 490.51C543.467 490.032 542.903 489.371 542.496 488.528C542.089 487.681 541.885 486.703 541.885 485.595C541.885 484.478 542.089 483.495 542.496 482.648C542.903 481.795 543.467 481.133 544.186 480.659C544.911 480.181 545.744 479.942 546.686 479.942C547.629 479.942 548.46 480.181 549.179 480.659C549.899 481.137 550.462 481.8 550.87 482.648C551.282 483.495 551.488 484.478 551.488 485.595C551.488 486.703 551.284 487.681 550.877 488.528C550.47 489.371 549.904 490.032 549.179 490.51C548.46 490.988 547.629 491.227 546.686 491.227ZM546.686 490.07C547.444 490.07 548.086 489.866 548.611 489.459C549.137 489.052 549.534 488.509 549.804 487.832C550.079 487.155 550.216 486.41 550.216 485.595C550.216 484.781 550.079 484.033 549.804 483.351C549.534 482.669 549.137 482.122 548.611 481.71C548.086 481.298 547.444 481.092 546.686 481.092C545.934 481.092 545.292 481.298 544.762 481.71C544.236 482.122 543.836 482.669 543.561 483.351C543.292 484.033 543.157 484.781 543.157 485.595C543.157 486.41 543.292 487.155 543.561 487.832C543.836 488.509 544.236 489.052 544.762 489.459C545.287 489.866 545.929 490.07 546.686 490.07ZM555.078 484.182V491H553.814V480.091H555.042V481.803H555.156C555.412 481.244 555.809 480.796 556.349 480.46C556.894 480.119 557.566 479.949 558.366 479.949C559.1 479.949 559.744 480.103 560.298 480.411C560.857 480.714 561.29 481.161 561.598 481.753C561.91 482.345 562.066 483.071 562.066 483.933V491H560.802V484.011C560.802 483.116 560.551 482.409 560.049 481.888C559.552 481.367 558.885 481.107 558.047 481.107C557.474 481.107 556.965 481.23 556.52 481.476C556.074 481.722 555.722 482.077 555.461 482.541C555.206 483 555.078 483.547 555.078 484.182ZM569.243 480.091V481.192H564.037V480.091H569.243ZM565.664 477.477H566.935V488.152C566.935 488.607 567.013 488.964 567.169 489.224C567.326 489.48 567.529 489.662 567.78 489.771C568.031 489.875 568.299 489.928 568.583 489.928C568.748 489.928 568.891 489.918 569.009 489.899C569.127 489.875 569.231 489.852 569.321 489.828L569.591 490.972C569.468 491.019 569.317 491.062 569.137 491.099C568.957 491.142 568.734 491.163 568.469 491.163C568.005 491.163 567.558 491.062 567.127 490.858C566.701 490.654 566.35 490.351 566.076 489.949C565.801 489.546 565.664 489.047 565.664 488.45V477.477ZM575.958 491.227C574.94 491.227 574.06 490.991 573.316 490.517C572.573 490.039 571.998 489.378 571.591 488.536C571.188 487.688 570.987 486.713 570.987 485.609C570.987 484.511 571.188 483.536 571.591 482.683C571.998 481.826 572.559 481.156 573.274 480.673C573.993 480.186 574.824 479.942 575.767 479.942C576.359 479.942 576.929 480.051 577.478 480.268C578.028 480.482 578.52 480.811 578.956 481.256C579.396 481.696 579.744 482.252 580 482.925C580.255 483.592 580.383 484.383 580.383 485.297V485.922H571.86V484.807H579.091C579.091 484.106 578.949 483.476 578.664 482.918C578.385 482.354 577.994 481.909 577.493 481.582C576.995 481.256 576.42 481.092 575.767 481.092C575.075 481.092 574.467 481.277 573.941 481.646C573.416 482.016 573.004 482.503 572.706 483.109C572.412 483.715 572.263 484.378 572.258 485.098V485.766C572.258 486.632 572.407 487.39 572.706 488.038C573.009 488.682 573.437 489.182 573.991 489.537C574.545 489.892 575.201 490.07 575.958 490.07C576.475 490.07 576.927 489.989 577.315 489.828C577.708 489.667 578.037 489.452 578.302 489.182C578.572 488.907 578.776 488.607 578.913 488.28L580.113 488.67C579.948 489.13 579.675 489.554 579.297 489.942C578.922 490.33 578.454 490.643 577.89 490.879C577.332 491.111 576.688 491.227 575.958 491.227ZM583.984 484.182V491H582.72V480.091H583.949V481.803H584.062C584.318 481.244 584.716 480.796 585.255 480.46C585.8 480.119 586.472 479.949 587.272 479.949C588.006 479.949 588.65 480.103 589.204 480.411C589.763 480.714 590.196 481.161 590.504 481.753C590.816 482.345 590.973 483.071 590.973 483.933V491H589.708V484.011C589.708 483.116 589.458 482.409 588.956 481.888C588.458 481.367 587.791 481.107 586.953 481.107C586.38 481.107 585.871 481.23 585.426 481.476C584.981 481.722 584.628 482.077 584.368 482.541C584.112 483 583.984 483.547 583.984 484.182ZM598.15 480.091V481.192H592.944V480.091H598.15ZM594.57 477.477H595.841V488.152C595.841 488.607 595.919 488.964 596.076 489.224C596.232 489.48 596.435 489.662 596.686 489.771C596.937 489.875 597.205 489.928 597.489 489.928C597.655 489.928 597.797 489.918 597.915 489.899C598.033 489.875 598.138 489.852 598.228 489.828L598.498 490.972C598.374 491.019 598.223 491.062 598.043 491.099C597.863 491.142 597.641 491.163 597.375 491.163C596.911 491.163 596.464 491.062 596.033 490.858C595.607 490.654 595.257 490.351 594.982 489.949C594.707 489.546 594.57 489.047 594.57 488.45V477.477ZM605.747 491V480.091H606.976V481.767H607.089C607.307 481.204 607.67 480.761 608.176 480.439C608.688 480.112 609.301 479.949 610.016 479.949C610.768 479.949 611.386 480.126 611.869 480.482C612.357 480.832 612.722 481.315 612.963 481.93H613.055C613.302 481.324 613.702 480.844 614.256 480.489C614.814 480.129 615.491 479.949 616.287 479.949C617.3 479.949 618.1 480.268 618.688 480.908C619.275 481.542 619.568 482.47 619.568 483.692V491H618.304V483.692C618.304 482.83 618.084 482.184 617.643 481.753C617.203 481.322 616.623 481.107 615.903 481.107C615.07 481.107 614.429 481.362 613.979 481.874C613.529 482.385 613.304 483.034 613.304 483.82V491H612.011V483.578C612.011 482.839 611.805 482.243 611.393 481.788C610.982 481.334 610.402 481.107 609.653 481.107C609.152 481.107 608.699 481.23 608.297 481.476C607.899 481.722 607.584 482.065 607.352 482.506C607.125 482.941 607.011 483.443 607.011 484.011V491H605.747ZM625.513 491.249C624.855 491.249 624.253 491.121 623.709 490.865C623.164 490.605 622.731 490.231 622.409 489.743C622.087 489.25 621.926 488.654 621.926 487.953C621.926 487.413 622.028 486.959 622.232 486.589C622.435 486.22 622.724 485.917 623.098 485.68C623.472 485.444 623.915 485.257 624.426 485.119C624.938 484.982 625.501 484.875 626.116 484.8C626.727 484.724 627.243 484.658 627.665 484.601C628.091 484.544 628.415 484.454 628.638 484.331C628.86 484.208 628.972 484.009 628.972 483.734V483.479C628.972 482.735 628.749 482.151 628.304 481.724C627.864 481.294 627.229 481.078 626.401 481.078C625.615 481.078 624.973 481.251 624.476 481.597C623.983 481.942 623.638 482.349 623.439 482.818L622.239 482.385C622.485 481.788 622.826 481.312 623.261 480.957C623.697 480.598 624.185 480.339 624.724 480.183C625.264 480.022 625.811 479.942 626.365 479.942C626.782 479.942 627.215 479.996 627.665 480.105C628.119 480.214 628.541 480.403 628.929 480.673C629.317 480.938 629.632 481.31 629.874 481.788C630.115 482.262 630.236 482.863 630.236 483.592V491H628.972V489.274H628.893C628.742 489.596 628.517 489.909 628.219 490.212C627.92 490.515 627.546 490.763 627.097 490.957C626.647 491.152 626.119 491.249 625.513 491.249ZM625.683 490.091C626.356 490.091 626.938 489.942 627.43 489.643C627.923 489.345 628.302 488.95 628.567 488.457C628.837 487.96 628.972 487.413 628.972 486.817V485.24C628.877 485.33 628.718 485.411 628.496 485.482C628.278 485.553 628.025 485.616 627.736 485.673C627.452 485.725 627.168 485.77 626.884 485.808C626.599 485.846 626.344 485.879 626.116 485.908C625.501 485.983 624.975 486.102 624.54 486.263C624.104 486.424 623.77 486.646 623.538 486.93C623.306 487.21 623.19 487.57 623.19 488.01C623.19 488.673 623.427 489.187 623.901 489.551C624.374 489.911 624.968 490.091 625.683 490.091ZM634.414 484.182V491H633.15V480.091H634.378V481.803H634.492C634.748 481.244 635.145 480.796 635.685 480.46C636.23 480.119 636.902 479.949 637.702 479.949C638.436 479.949 639.08 480.103 639.634 480.411C640.193 480.714 640.626 481.161 640.934 481.753C641.246 482.345 641.402 483.071 641.402 483.933V491H640.138V484.011C640.138 483.116 639.887 482.409 639.385 481.888C638.888 481.367 638.221 481.107 637.382 481.107C636.81 481.107 636.301 481.23 635.855 481.476C635.41 481.722 635.058 482.077 634.797 482.541C634.542 483 634.414 483.547 634.414 484.182ZM647.329 491.249C646.671 491.249 646.07 491.121 645.525 490.865C644.981 490.605 644.547 490.231 644.225 489.743C643.904 489.25 643.743 488.654 643.743 487.953C643.743 487.413 643.844 486.959 644.048 486.589C644.252 486.22 644.54 485.917 644.914 485.68C645.288 485.444 645.731 485.257 646.243 485.119C646.754 484.982 647.317 484.875 647.933 484.8C648.544 484.724 649.06 484.658 649.481 484.601C649.907 484.544 650.232 484.454 650.454 484.331C650.677 484.208 650.788 484.009 650.788 483.734V483.479C650.788 482.735 650.565 482.151 650.12 481.724C649.68 481.294 649.046 481.078 648.217 481.078C647.431 481.078 646.789 481.251 646.292 481.597C645.8 481.942 645.454 482.349 645.255 482.818L644.055 482.385C644.301 481.788 644.642 481.312 645.078 480.957C645.513 480.598 646.001 480.339 646.541 480.183C647.081 480.022 647.627 479.942 648.181 479.942C648.598 479.942 649.031 479.996 649.481 480.105C649.936 480.214 650.357 480.403 650.745 480.673C651.134 480.938 651.449 481.31 651.69 481.788C651.931 482.262 652.052 482.863 652.052 483.592V491H650.788V489.274H650.71C650.558 489.596 650.333 489.909 650.035 490.212C649.737 490.515 649.363 490.763 648.913 490.957C648.463 491.152 647.935 491.249 647.329 491.249ZM647.5 490.091C648.172 490.091 648.754 489.942 649.247 489.643C649.739 489.345 650.118 488.95 650.383 488.457C650.653 487.96 650.788 487.413 650.788 486.817V485.24C650.693 485.33 650.535 485.411 650.312 485.482C650.094 485.553 649.841 485.616 649.552 485.673C649.268 485.725 648.984 485.77 648.7 485.808C648.416 485.846 648.16 485.879 647.933 485.908C647.317 485.983 646.792 486.102 646.356 486.263C645.921 486.424 645.587 486.646 645.355 486.93C645.123 487.21 645.007 487.57 645.007 488.01C645.007 488.673 645.243 489.187 645.717 489.551C646.19 489.911 646.785 490.091 647.5 490.091ZM659.128 495.318C658.384 495.318 657.733 495.221 657.175 495.027C656.616 494.838 656.145 494.577 655.761 494.246C655.378 493.914 655.08 493.543 654.866 493.131L655.903 492.449C656.06 492.723 656.268 492.993 656.528 493.259C656.794 493.524 657.137 493.744 657.558 493.919C657.984 494.094 658.508 494.182 659.128 494.182C660.094 494.182 660.873 493.94 661.464 493.457C662.061 492.974 662.359 492.224 662.359 491.206V488.749H662.246C662.099 489.08 661.888 489.411 661.614 489.743C661.339 490.07 660.979 490.342 660.534 490.56C660.094 490.777 659.547 490.886 658.893 490.886C658.022 490.886 657.248 490.671 656.571 490.24C655.899 489.809 655.368 489.194 654.98 488.393C654.597 487.589 654.405 486.63 654.405 485.517C654.405 484.414 654.592 483.443 654.966 482.605C655.345 481.767 655.873 481.114 656.55 480.645C657.227 480.176 658.015 479.942 658.915 479.942C659.582 479.942 660.136 480.06 660.577 480.297C661.017 480.529 661.37 480.818 661.635 481.163C661.905 481.509 662.116 481.845 662.267 482.172H662.395V480.091H663.631V491.284C663.631 492.207 663.434 492.967 663.041 493.564C662.648 494.161 662.113 494.601 661.436 494.885C660.759 495.174 659.99 495.318 659.128 495.318ZM659.043 489.729C659.743 489.729 660.342 489.561 660.839 489.224C661.337 488.884 661.718 488.396 661.983 487.761C662.248 487.127 662.381 486.372 662.381 485.496C662.381 484.643 662.25 483.888 661.99 483.23C661.73 482.567 661.351 482.046 660.854 481.668C660.361 481.284 659.758 481.092 659.043 481.092C658.313 481.092 657.698 481.289 657.196 481.682C656.694 482.075 656.315 482.605 656.06 483.273C655.804 483.936 655.676 484.677 655.676 485.496C655.676 486.329 655.806 487.065 656.067 487.705C656.327 488.339 656.708 488.836 657.21 489.196C657.712 489.551 658.323 489.729 659.043 489.729ZM670.939 491.227C669.921 491.227 669.04 490.991 668.297 490.517C667.554 490.039 666.978 489.378 666.571 488.536C666.169 487.688 665.967 486.713 665.967 485.609C665.967 484.511 666.169 483.536 666.571 482.683C666.978 481.826 667.539 481.156 668.254 480.673C668.974 480.186 669.805 479.942 670.747 479.942C671.339 479.942 671.91 480.051 672.459 480.268C673.008 480.482 673.5 480.811 673.936 481.256C674.376 481.696 674.724 482.252 674.98 482.925C675.236 483.592 675.364 484.383 675.364 485.297V485.922H666.841V484.807H674.071C674.071 484.106 673.929 483.476 673.645 482.918C673.366 482.354 672.975 481.909 672.473 481.582C671.976 481.256 671.401 481.092 670.747 481.092C670.056 481.092 669.447 481.277 668.922 481.646C668.396 482.016 667.984 482.503 667.686 483.109C667.393 483.715 667.243 484.378 667.239 485.098V485.766C667.239 486.632 667.388 487.39 667.686 488.038C667.989 488.682 668.418 489.182 668.972 489.537C669.526 489.892 670.181 490.07 670.939 490.07C671.455 490.07 671.907 489.989 672.295 489.828C672.688 489.667 673.018 489.452 673.283 489.182C673.553 488.907 673.756 488.607 673.893 488.28L675.094 488.67C674.928 489.13 674.656 489.554 674.277 489.942C673.903 490.33 673.434 490.643 672.871 490.879C672.312 491.111 671.668 491.227 670.939 491.227ZM677.7 491V480.091H678.929V481.767H679.043C679.26 481.204 679.623 480.761 680.129 480.439C680.641 480.112 681.254 479.949 681.969 479.949C682.722 479.949 683.339 480.126 683.822 480.482C684.31 480.832 684.675 481.315 684.916 481.93H685.009C685.255 481.324 685.655 480.844 686.209 480.489C686.768 480.129 687.445 479.949 688.24 479.949C689.253 479.949 690.054 480.268 690.641 480.908C691.228 481.542 691.521 482.47 691.521 483.692V491H690.257V483.692C690.257 482.83 690.037 482.184 689.597 481.753C689.156 481.322 688.576 481.107 687.857 481.107C687.023 481.107 686.382 481.362 685.932 481.874C685.482 482.385 685.257 483.034 685.257 483.82V491H683.964V483.578C683.964 482.839 683.759 482.243 683.347 481.788C682.935 481.334 682.355 481.107 681.607 481.107C681.105 481.107 680.652 481.23 680.25 481.476C679.852 481.722 679.537 482.065 679.305 482.506C679.078 482.941 678.964 483.443 678.964 484.011V491H677.7ZM698.83 491.227C697.812 491.227 696.931 490.991 696.188 490.517C695.444 490.039 694.869 489.378 694.462 488.536C694.059 487.688 693.858 486.713 693.858 485.609C693.858 484.511 694.059 483.536 694.462 482.683C694.869 481.826 695.43 481.156 696.145 480.673C696.865 480.186 697.696 479.942 698.638 479.942C699.23 479.942 699.8 480.051 700.349 480.268C700.899 480.482 701.391 480.811 701.827 481.256C702.267 481.696 702.615 482.252 702.871 482.925C703.126 483.592 703.254 484.383 703.254 485.297V485.922H694.732V484.807H701.962C701.962 484.106 701.82 483.476 701.536 482.918C701.256 482.354 700.866 481.909 700.364 481.582C699.866 481.256 699.291 481.092 698.638 481.092C697.946 481.092 697.338 481.277 696.812 481.646C696.287 482.016 695.875 482.503 695.577 483.109C695.283 483.715 695.134 484.378 695.129 485.098V485.766C695.129 486.632 695.278 487.39 695.577 488.038C695.88 488.682 696.308 489.182 696.862 489.537C697.416 489.892 698.072 490.07 698.83 490.07C699.346 490.07 699.798 489.989 700.186 489.828C700.579 489.667 700.908 489.452 701.173 489.182C701.443 488.907 701.647 488.607 701.784 488.28L702.984 488.67C702.819 489.13 702.546 489.554 702.168 489.942C701.794 490.33 701.325 490.643 700.761 490.879C700.203 491.111 699.559 491.227 698.83 491.227ZM706.855 484.182V491H705.591V480.091H706.82V481.803H706.933C707.189 481.244 707.587 480.796 708.126 480.46C708.671 480.119 709.343 479.949 710.143 479.949C710.877 479.949 711.521 480.103 712.075 480.411C712.634 480.714 713.067 481.161 713.375 481.753C713.688 482.345 713.844 483.071 713.844 483.933V491H712.58V484.011C712.58 483.116 712.329 482.409 711.827 481.888C711.33 481.367 710.662 481.107 709.824 481.107C709.251 481.107 708.742 481.23 708.297 481.476C707.852 481.722 707.499 482.077 707.239 482.541C706.983 483 706.855 483.547 706.855 484.182ZM721.021 480.091V481.192H715.815V480.091H721.021ZM717.441 477.477H718.712V488.152C718.712 488.607 718.79 488.964 718.947 489.224C719.103 489.48 719.307 489.662 719.558 489.771C719.808 489.875 720.076 489.928 720.36 489.928C720.526 489.928 720.668 489.918 720.786 489.899C720.905 489.875 721.009 489.852 721.099 489.828L721.369 490.972C721.246 491.019 721.094 491.062 720.914 491.099C720.734 491.142 720.512 491.163 720.246 491.163C719.782 491.163 719.335 491.062 718.904 490.858C718.478 490.654 718.128 490.351 717.853 489.949C717.578 489.546 717.441 489.047 717.441 488.45V477.477ZM728.618 495.091V480.091H729.847V482.172H729.996C730.148 481.845 730.356 481.511 730.621 481.17C730.886 480.825 731.237 480.534 731.672 480.297C732.113 480.06 732.667 479.942 733.334 479.942C734.234 479.942 735.02 480.179 735.692 480.652C736.369 481.121 736.895 481.779 737.269 482.626C737.648 483.469 737.837 484.452 737.837 485.574C737.837 486.701 737.648 487.688 737.269 488.536C736.895 489.383 736.369 490.044 735.692 490.517C735.02 490.991 734.239 491.227 733.348 491.227C732.69 491.227 732.139 491.109 731.694 490.872C731.253 490.635 730.896 490.344 730.621 489.999C730.351 489.648 730.143 489.307 729.996 488.976H729.882V495.091H728.618ZM729.868 485.553C729.868 486.433 729.998 487.214 730.259 487.896C730.524 488.573 730.903 489.106 731.395 489.494C731.892 489.878 732.494 490.07 733.199 490.07C733.924 490.07 734.534 489.871 735.032 489.473C735.533 489.071 735.915 488.528 736.175 487.847C736.44 487.165 736.573 486.4 736.573 485.553C736.573 484.714 736.443 483.959 736.182 483.287C735.926 482.615 735.548 482.082 735.046 481.689C734.544 481.291 733.928 481.092 733.199 481.092C732.489 481.092 731.885 481.284 731.388 481.668C730.891 482.046 730.512 482.572 730.252 483.244C729.996 483.912 729.868 484.681 729.868 485.553ZM741.425 476.455V491H740.161V476.455H741.425ZM747.368 491.249C746.71 491.249 746.109 491.121 745.564 490.865C745.02 490.605 744.587 490.231 744.265 489.743C743.943 489.25 743.782 488.654 743.782 487.953C743.782 487.413 743.883 486.959 744.087 486.589C744.291 486.22 744.579 485.917 744.953 485.68C745.328 485.444 745.77 485.257 746.282 485.119C746.793 484.982 747.356 484.875 747.972 484.8C748.583 484.724 749.099 484.658 749.52 484.601C749.946 484.544 750.271 484.454 750.493 484.331C750.716 484.208 750.827 484.009 750.827 483.734V483.479C750.827 482.735 750.605 482.151 750.159 481.724C749.719 481.294 749.085 481.078 748.256 481.078C747.47 481.078 746.828 481.251 746.331 481.597C745.839 481.942 745.493 482.349 745.294 482.818L744.094 482.385C744.34 481.788 744.681 481.312 745.117 480.957C745.552 480.598 746.04 480.339 746.58 480.183C747.12 480.022 747.667 479.942 748.221 479.942C748.637 479.942 749.07 479.996 749.52 480.105C749.975 480.214 750.396 480.403 750.784 480.673C751.173 480.938 751.488 481.31 751.729 481.788C751.971 482.262 752.091 482.863 752.091 483.592V491H750.827V489.274H750.749C750.597 489.596 750.373 489.909 750.074 490.212C749.776 490.515 749.402 490.763 748.952 490.957C748.502 491.152 747.974 491.249 747.368 491.249ZM747.539 490.091C748.211 490.091 748.793 489.942 749.286 489.643C749.778 489.345 750.157 488.95 750.422 488.457C750.692 487.96 750.827 487.413 750.827 486.817V485.24C750.732 485.33 750.574 485.411 750.351 485.482C750.133 485.553 749.88 485.616 749.591 485.673C749.307 485.725 749.023 485.77 748.739 485.808C748.455 485.846 748.199 485.879 747.972 485.908C747.356 485.983 746.831 486.102 746.395 486.263C745.96 486.424 745.626 486.646 745.394 486.93C745.162 487.21 745.046 487.57 745.046 488.01C745.046 488.673 745.283 489.187 745.756 489.551C746.23 489.911 746.824 490.091 747.539 490.091ZM759.302 480.091V481.192H754.096V480.091H759.302ZM755.722 477.477H756.994V488.152C756.994 488.607 757.072 488.964 757.228 489.224C757.384 489.48 757.588 489.662 757.839 489.771C758.09 489.875 758.357 489.928 758.641 489.928C758.807 489.928 758.949 489.918 759.067 489.899C759.186 489.875 759.29 489.852 759.38 489.828L759.65 490.972C759.527 491.019 759.375 491.062 759.195 491.099C759.015 491.142 758.793 491.163 758.528 491.163C758.064 491.163 757.616 491.062 757.185 490.858C756.759 490.654 756.409 490.351 756.134 489.949C755.86 489.546 755.722 489.047 755.722 488.45V477.477ZM766.212 480.091V481.192H760.85V480.091H766.212ZM762.526 491V478.493C762.526 477.906 762.661 477.411 762.931 477.009C763.206 476.606 763.563 476.301 764.004 476.092C764.444 475.884 764.91 475.78 765.403 475.78C765.734 475.78 766.009 475.808 766.227 475.865C766.449 475.917 766.624 475.969 766.752 476.021L766.383 477.129C766.288 477.101 766.172 477.068 766.035 477.03C765.897 476.992 765.725 476.973 765.516 476.973C764.967 476.973 764.543 477.127 764.245 477.435C763.947 477.742 763.798 478.183 763.798 478.756L763.79 491H762.526ZM772.077 491.227C771.135 491.227 770.301 490.988 769.577 490.51C768.857 490.032 768.294 489.371 767.887 488.528C767.48 487.681 767.276 486.703 767.276 485.595C767.276 484.478 767.48 483.495 767.887 482.648C768.294 481.795 768.857 481.133 769.577 480.659C770.301 480.181 771.135 479.942 772.077 479.942C773.019 479.942 773.85 480.181 774.57 480.659C775.29 481.137 775.853 481.8 776.26 482.648C776.672 483.495 776.878 484.478 776.878 485.595C776.878 486.703 776.675 487.681 776.267 488.528C775.86 489.371 775.294 490.032 774.57 490.51C773.85 490.988 773.019 491.227 772.077 491.227ZM772.077 490.07C772.835 490.07 773.476 489.866 774.002 489.459C774.527 489.052 774.925 488.509 775.195 487.832C775.47 487.155 775.607 486.41 775.607 485.595C775.607 484.781 775.47 484.033 775.195 483.351C774.925 482.669 774.527 482.122 774.002 481.71C773.476 481.298 772.835 481.092 772.077 481.092C771.324 481.092 770.683 481.298 770.152 481.71C769.627 482.122 769.227 482.669 768.952 483.351C768.682 484.033 768.547 484.781 768.547 485.595C768.547 486.41 768.682 487.155 768.952 487.832C769.227 488.509 769.627 489.052 770.152 489.459C770.678 489.866 771.319 490.07 772.077 490.07ZM779.204 491V480.091H780.433V481.767H780.525C780.743 481.218 781.122 480.775 781.662 480.439C782.206 480.098 782.822 479.928 783.508 479.928C783.612 479.928 783.728 479.93 783.856 479.935C783.984 479.939 784.091 479.944 784.176 479.949V481.234C784.119 481.225 784.02 481.211 783.877 481.192C783.735 481.173 783.582 481.163 783.416 481.163C782.848 481.163 782.341 481.284 781.896 481.526C781.456 481.762 781.108 482.091 780.852 482.513C780.596 482.934 780.468 483.415 780.468 483.955V491H779.204ZM785.884 491V480.091H787.113V481.767H787.226C787.444 481.204 787.806 480.761 788.313 480.439C788.824 480.112 789.437 479.949 790.152 479.949C790.905 479.949 791.523 480.126 792.006 480.482C792.494 480.832 792.858 481.315 793.1 481.93H793.192C793.438 481.324 793.838 480.844 794.392 480.489C794.951 480.129 795.628 479.949 796.424 479.949C797.437 479.949 798.237 480.268 798.824 480.908C799.411 481.542 799.705 482.47 799.705 483.692V491H798.441V483.692C798.441 482.83 798.221 482.184 797.78 481.753C797.34 481.322 796.76 481.107 796.04 481.107C795.207 481.107 794.565 481.362 794.115 481.874C793.666 482.385 793.441 483.034 793.441 483.82V491H792.148V483.578C792.148 482.839 791.942 482.243 791.53 481.788C791.118 481.334 790.538 481.107 789.79 481.107C789.288 481.107 788.836 481.23 788.434 481.476C788.036 481.722 787.721 482.065 787.489 482.506C787.262 482.941 787.148 483.443 787.148 484.011V491H785.884Z" fill="white" fill-opacity="0.7"/>
</svg>
