<svg width="2000" height="784" viewBox="0 0 2000 784" fill="none" xmlns="http://www.w3.org/2000/svg">
<rect width="2000" height="784" fill="url(#paint0_linear_7046_147507)"/>
<path d="M375 378.624C379.777 383.083 386.465 394.675 375 405.376" stroke="white" stroke-width="10" stroke-linecap="round"/>
<path d="M389.457 366.585C398.109 375.057 410.221 397.083 389.457 417.414" stroke="white" stroke-width="10" stroke-linecap="round"/>
<path d="M401.727 354.547C414.704 367.032 432.873 399.49 401.727 429.453" stroke="#ABAAD8" stroke-width="10" stroke-linecap="round"/>
<path d="M450.886 355.5C451.152 355.5 451.286 355.633 451.286 355.9V358.42C451.286 358.687 451.152 358.82 450.886 358.82H445.646C445.539 358.82 445.486 358.873 445.486 358.98V383.1C445.486 383.367 445.352 383.5 445.086 383.5H442.046C441.779 383.5 441.646 383.367 441.646 383.1V358.98C441.646 358.873 441.592 358.82 441.486 358.82H436.526C436.259 358.82 436.126 358.687 436.126 358.42V355.9C436.126 355.633 436.259 355.5 436.526 355.5H450.886ZM467.464 383.5C467.224 383.5 467.078 383.38 467.024 383.14L466.144 378.54C466.144 378.487 466.118 378.447 466.064 378.42C466.038 378.393 465.998 378.38 465.944 378.38H459.424C459.371 378.38 459.318 378.393 459.264 378.42C459.238 378.447 459.224 378.487 459.224 378.54L458.384 383.14C458.358 383.38 458.211 383.5 457.944 383.5H454.904C454.771 383.5 454.664 383.46 454.584 383.38C454.531 383.3 454.518 383.193 454.544 383.06L460.504 355.86C460.558 355.62 460.704 355.5 460.944 355.5H464.504C464.771 355.5 464.918 355.62 464.944 355.86L470.944 383.06V383.14C470.944 383.38 470.824 383.5 470.584 383.5H467.464ZM459.904 375.18C459.904 375.287 459.944 375.34 460.024 375.34H465.344C465.424 375.34 465.464 375.287 465.464 375.18L462.744 360.98C462.718 360.927 462.691 360.9 462.664 360.9C462.638 360.9 462.611 360.927 462.584 360.98L459.904 375.18ZM477.526 383.5C477.259 383.5 477.126 383.367 477.126 383.1V355.9C477.126 355.633 477.259 355.5 477.526 355.5H480.566C480.833 355.5 480.966 355.633 480.966 355.9V380.02C480.966 380.127 481.019 380.18 481.126 380.18H490.086C490.353 380.18 490.486 380.313 490.486 380.58V383.1C490.486 383.367 490.353 383.5 490.086 383.5H477.526ZM497.015 383.5C496.748 383.5 496.615 383.367 496.615 383.1V355.9C496.615 355.633 496.748 355.5 497.015 355.5H500.055C500.322 355.5 500.455 355.633 500.455 355.9V367.9C500.455 367.98 500.482 368.033 500.535 368.06C500.588 368.06 500.628 368.02 500.655 367.94L507.455 355.78C507.588 355.593 507.748 355.5 507.935 355.5H511.215C511.375 355.5 511.482 355.553 511.535 355.66C511.588 355.74 511.575 355.847 511.495 355.98L505.335 367.1C505.308 367.18 505.308 367.26 505.335 367.34L512.015 383.02L512.055 383.18C512.055 383.393 511.935 383.5 511.695 383.5H508.375C508.162 383.5 508.015 383.393 507.935 383.18L502.735 370.7C502.708 370.567 502.642 370.553 502.535 370.66L500.495 373.9C500.468 373.927 500.455 373.993 500.455 374.1V383.1C500.455 383.367 500.322 383.5 500.055 383.5H497.015ZM518.848 383.5C518.581 383.5 518.448 383.367 518.448 383.1V355.9C518.448 355.633 518.581 355.5 518.848 355.5H521.888C522.155 355.5 522.288 355.633 522.288 355.9V383.1C522.288 383.367 522.155 383.5 521.888 383.5H518.848ZM541.717 355.9C541.717 355.633 541.85 355.5 542.117 355.5H545.117C545.384 355.5 545.517 355.633 545.517 355.9V383.1C545.517 383.367 545.384 383.5 545.117 383.5H541.677C541.464 383.5 541.317 383.393 541.237 383.18L534.437 364.9C534.41 364.847 534.37 364.833 534.317 364.86C534.264 364.86 534.237 364.887 534.237 364.94L534.277 383.1C534.277 383.367 534.144 383.5 533.877 383.5H530.837C530.57 383.5 530.437 383.367 530.437 383.1V355.9C530.437 355.633 530.57 355.5 530.837 355.5H534.237C534.45 355.5 534.597 355.607 534.677 355.82L541.517 374.1C541.544 374.18 541.584 374.22 541.637 374.22C541.69 374.193 541.717 374.14 541.717 374.06V355.9ZM560.316 383.82C558.156 383.82 556.409 383.18 555.076 381.9C553.769 380.62 553.116 378.927 553.116 376.82V362.18C553.116 360.073 553.769 358.38 555.076 357.1C556.409 355.82 558.156 355.18 560.316 355.18C562.476 355.18 564.223 355.82 565.556 357.1C566.889 358.38 567.556 360.087 567.556 362.22V363.9C567.556 364.167 567.423 364.3 567.156 364.3H564.116C563.849 364.3 563.716 364.167 563.716 363.9V362.14C563.716 361.047 563.396 360.167 562.756 359.5C562.143 358.833 561.329 358.5 560.316 358.5C559.303 358.5 558.476 358.833 557.836 359.5C557.223 360.167 556.916 361.047 556.916 362.14V376.86C556.916 377.953 557.223 378.833 557.836 379.5C558.476 380.167 559.303 380.5 560.316 380.5C561.329 380.5 562.143 380.167 562.756 379.5C563.396 378.833 563.716 377.953 563.716 376.86V372.46C563.716 372.353 563.663 372.3 563.556 372.3H560.516C560.249 372.3 560.116 372.167 560.116 371.9V369.42C560.116 369.153 560.249 369.02 560.516 369.02H567.156C567.423 369.02 567.556 369.153 567.556 369.42V376.82C567.556 378.927 566.889 380.62 565.556 381.9C564.223 383.18 562.476 383.82 560.316 383.82ZM592.445 383.82C590.338 383.82 588.632 383.167 587.325 381.86C586.045 380.527 585.405 378.793 585.405 376.66V375.62C585.405 375.353 585.538 375.22 585.805 375.22H588.765C589.032 375.22 589.165 375.353 589.165 375.62V376.46C589.165 377.687 589.472 378.673 590.085 379.42C590.698 380.14 591.485 380.5 592.445 380.5C593.405 380.5 594.192 380.153 594.805 379.46C595.445 378.74 595.765 377.807 595.765 376.66C595.765 375.887 595.592 375.207 595.245 374.62C594.925 374.033 594.485 373.513 593.925 373.06C593.392 372.58 592.512 371.887 591.285 370.98C589.925 369.967 588.858 369.1 588.085 368.38C587.312 367.66 586.658 366.793 586.125 365.78C585.592 364.767 585.325 363.58 585.325 362.22C585.325 360.06 585.965 358.353 587.245 357.1C588.525 355.82 590.192 355.18 592.245 355.18C594.378 355.18 596.085 355.86 597.365 357.22C598.672 358.58 599.325 360.367 599.325 362.58V363.58C599.325 363.847 599.192 363.98 598.925 363.98H595.965C595.698 363.98 595.565 363.847 595.565 363.58V362.5C595.565 361.3 595.258 360.34 594.645 359.62C594.032 358.873 593.232 358.5 592.245 358.5C591.312 358.5 590.552 358.833 589.965 359.5C589.378 360.14 589.085 361.047 589.085 362.22C589.085 363.287 589.378 364.193 589.965 364.94C590.552 365.66 591.685 366.633 593.365 367.86C594.965 369.06 596.165 370.033 596.965 370.78C597.792 371.527 598.418 372.353 598.845 373.26C599.298 374.14 599.525 375.193 599.525 376.42C599.525 378.66 598.872 380.46 597.565 381.82C596.258 383.153 594.552 383.82 592.445 383.82ZM613.236 383.82C611.076 383.82 609.33 383.167 607.996 381.86C606.69 380.527 606.036 378.767 606.036 376.58V362.38C606.036 360.193 606.69 358.447 607.996 357.14C609.33 355.833 611.076 355.18 613.236 355.18C615.423 355.18 617.17 355.833 618.476 357.14C619.81 358.447 620.476 360.193 620.476 362.38V363.02C620.476 363.287 620.343 363.42 620.076 363.42L617.036 363.58C616.77 363.58 616.636 363.447 616.636 363.18V362.14C616.636 361.047 616.316 360.167 615.676 359.5C615.063 358.833 614.25 358.5 613.236 358.5C612.223 358.5 611.41 358.833 610.796 359.5C610.183 360.167 609.876 361.047 609.876 362.14V376.86C609.876 377.953 610.183 378.833 610.796 379.5C611.41 380.167 612.223 380.5 613.236 380.5C614.25 380.5 615.063 380.167 615.676 379.5C616.316 378.833 616.636 377.953 616.636 376.86V375.82C616.636 375.553 616.77 375.42 617.036 375.42L620.076 375.58C620.343 375.58 620.476 375.713 620.476 375.98V376.58C620.476 378.767 619.81 380.527 618.476 381.86C617.17 383.167 615.423 383.82 613.236 383.82ZM639.002 383.5C638.762 383.5 638.602 383.393 638.522 383.18L634.842 371.26C634.816 371.18 634.762 371.14 634.682 371.14H631.882C631.776 371.14 631.722 371.193 631.722 371.3V383.1C631.722 383.367 631.589 383.5 631.322 383.5H628.282C628.016 383.5 627.882 383.367 627.882 383.1V355.9C627.882 355.633 628.016 355.5 628.282 355.5H635.442C636.802 355.5 638.002 355.833 639.042 356.5C640.082 357.167 640.882 358.113 641.442 359.34C642.029 360.54 642.322 361.913 642.322 363.46C642.322 365.14 641.976 366.607 641.282 367.86C640.589 369.087 639.642 369.98 638.442 370.54C638.362 370.62 638.336 370.7 638.362 370.78L642.442 383.06L642.482 383.22C642.482 383.407 642.362 383.5 642.122 383.5H639.002ZM631.882 358.82C631.776 358.82 631.722 358.873 631.722 358.98V367.94C631.722 368.047 631.776 368.1 631.882 368.1H634.842C635.936 368.1 636.816 367.687 637.482 366.86C638.149 366.007 638.482 364.887 638.482 363.5C638.482 362.06 638.149 360.927 637.482 360.1C636.816 359.247 635.936 358.82 634.842 358.82H631.882ZM649.607 383.5C649.341 383.5 649.207 383.367 649.207 383.1V355.9C649.207 355.633 649.341 355.5 649.607 355.5H652.647C652.914 355.5 653.047 355.633 653.047 355.9V383.1C653.047 383.367 652.914 383.5 652.647 383.5H649.607ZM668.716 355.46C670.77 355.46 672.423 356.207 673.676 357.7C674.956 359.167 675.596 361.1 675.596 363.5C675.596 365.847 674.983 367.74 673.756 369.18C672.53 370.62 670.916 371.34 668.916 371.34H665.156C665.05 371.34 664.996 371.393 664.996 371.5V383.1C664.996 383.367 664.863 383.5 664.596 383.5H661.556C661.29 383.5 661.156 383.367 661.156 383.1V355.86C661.156 355.593 661.29 355.46 661.556 355.46H668.716ZM668.116 368.26C669.21 368.26 670.09 367.847 670.756 367.02C671.423 366.167 671.756 365.02 671.756 363.58C671.756 362.113 671.423 360.953 670.756 360.1C670.09 359.22 669.21 358.78 668.116 358.78H665.156C665.05 358.78 664.996 358.833 664.996 358.94V368.1C664.996 368.207 665.05 368.26 665.156 368.26H668.116ZM695.923 355.5C696.19 355.5 696.323 355.633 696.323 355.9V358.42C696.323 358.687 696.19 358.82 695.923 358.82H690.683C690.577 358.82 690.523 358.873 690.523 358.98V383.1C690.523 383.367 690.39 383.5 690.123 383.5H687.083C686.817 383.5 686.683 383.367 686.683 383.1V358.98C686.683 358.873 686.63 358.82 686.523 358.82H681.563C681.297 358.82 681.163 358.687 681.163 358.42V355.9C681.163 355.633 681.297 355.5 681.563 355.5H695.923ZM709.301 383.82C707.195 383.82 705.488 383.167 704.181 381.86C702.901 380.527 702.261 378.793 702.261 376.66V375.62C702.261 375.353 702.395 375.22 702.661 375.22H705.621C705.888 375.22 706.021 375.353 706.021 375.62V376.46C706.021 377.687 706.328 378.673 706.941 379.42C707.555 380.14 708.341 380.5 709.301 380.5C710.261 380.5 711.048 380.153 711.661 379.46C712.301 378.74 712.621 377.807 712.621 376.66C712.621 375.887 712.448 375.207 712.101 374.62C711.781 374.033 711.341 373.513 710.781 373.06C710.248 372.58 709.368 371.887 708.141 370.98C706.781 369.967 705.715 369.1 704.941 368.38C704.168 367.66 703.515 366.793 702.981 365.78C702.448 364.767 702.181 363.58 702.181 362.22C702.181 360.06 702.821 358.353 704.101 357.1C705.381 355.82 707.048 355.18 709.101 355.18C711.235 355.18 712.941 355.86 714.221 357.22C715.528 358.58 716.181 360.367 716.181 362.58V363.58C716.181 363.847 716.048 363.98 715.781 363.98H712.821C712.555 363.98 712.421 363.847 712.421 363.58V362.5C712.421 361.3 712.115 360.34 711.501 359.62C710.888 358.873 710.088 358.5 709.101 358.5C708.168 358.5 707.408 358.833 706.821 359.5C706.235 360.14 705.941 361.047 705.941 362.22C705.941 363.287 706.235 364.193 706.821 364.94C707.408 365.66 708.541 366.633 710.221 367.86C711.821 369.06 713.021 370.033 713.821 370.78C714.648 371.527 715.275 372.353 715.701 373.26C716.155 374.14 716.381 375.193 716.381 376.42C716.381 378.66 715.728 380.46 714.421 381.82C713.115 383.153 711.408 383.82 709.301 383.82Z" fill="white"/>
<rect x="434.926" y="399.5" width="100" height="37" rx="18.5" fill="white"/>
<path d="M451.514 426.692C450.458 426.692 449.53 426.508 448.73 426.14C447.93 425.756 447.306 425.22 446.858 424.532C446.426 423.828 446.21 423.02 446.21 422.108V421.484C446.21 421.404 446.234 421.34 446.282 421.292C446.346 421.228 446.418 421.196 446.498 421.196H448.658C448.738 421.196 448.802 421.228 448.85 421.292C448.914 421.34 448.946 421.404 448.946 421.484V421.964C448.946 422.652 449.186 423.212 449.666 423.644C450.146 424.076 450.794 424.292 451.61 424.292C452.362 424.292 452.938 424.1 453.338 423.716C453.738 423.332 453.938 422.828 453.938 422.204C453.938 421.772 453.826 421.404 453.602 421.1C453.378 420.78 453.058 420.492 452.642 420.236C452.242 419.964 451.618 419.604 450.77 419.156C449.794 418.644 449.01 418.188 448.418 417.788C447.826 417.388 447.322 416.876 446.906 416.252C446.506 415.628 446.306 414.868 446.306 413.972C446.306 412.596 446.762 411.508 447.674 410.708C448.602 409.908 449.818 409.508 451.322 409.508C452.362 409.508 453.282 409.708 454.082 410.108C454.882 410.492 455.498 411.044 455.93 411.764C456.362 412.484 456.578 413.308 456.578 414.236V414.74C456.578 414.82 456.546 414.892 456.482 414.956C456.434 415.004 456.37 415.028 456.29 415.028H454.13C454.05 415.028 453.978 415.004 453.914 414.956C453.866 414.892 453.842 414.82 453.842 414.74V414.284C453.842 413.596 453.61 413.028 453.146 412.58C452.682 412.132 452.058 411.908 451.274 411.908C450.586 411.908 450.042 412.092 449.642 412.46C449.242 412.812 449.042 413.308 449.042 413.948C449.042 414.38 449.146 414.748 449.354 415.052C449.562 415.356 449.874 415.644 450.29 415.916C450.722 416.188 451.37 416.54 452.234 416.972C453.386 417.628 454.234 418.14 454.778 418.508C455.322 418.876 455.778 419.356 456.146 419.948C456.53 420.524 456.722 421.236 456.722 422.084C456.722 423.492 456.25 424.612 455.306 425.444C454.362 426.276 453.098 426.692 451.514 426.692ZM470.617 409.7C470.697 409.7 470.761 409.732 470.809 409.796C470.873 409.844 470.905 409.908 470.905 409.988V411.836C470.905 411.916 470.873 411.988 470.809 412.052C470.761 412.1 470.697 412.124 470.617 412.124H466.897C466.817 412.124 466.777 412.164 466.777 412.244V426.212C466.777 426.292 466.745 426.364 466.681 426.428C466.633 426.476 466.569 426.5 466.489 426.5H464.281C464.201 426.5 464.129 426.476 464.065 426.428C464.017 426.364 463.993 426.292 463.993 426.212V412.244C463.993 412.164 463.953 412.124 463.873 412.124H460.297C460.217 412.124 460.145 412.1 460.081 412.052C460.033 411.988 460.009 411.916 460.009 411.836V409.988C460.009 409.908 460.033 409.844 460.081 409.796C460.145 409.732 460.217 409.7 460.297 409.7H470.617ZM480.232 426.692C479.192 426.692 478.272 426.476 477.472 426.044C476.672 425.612 476.048 425.004 475.6 424.22C475.168 423.42 474.952 422.5 474.952 421.46V409.988C474.952 409.908 474.976 409.844 475.024 409.796C475.088 409.732 475.16 409.7 475.24 409.7H477.448C477.528 409.7 477.592 409.732 477.64 409.796C477.704 409.844 477.736 409.908 477.736 409.988V421.604C477.736 422.404 477.96 423.052 478.408 423.548C478.872 424.044 479.48 424.292 480.232 424.292C480.984 424.292 481.592 424.044 482.056 423.548C482.52 423.052 482.752 422.404 482.752 421.604V409.988C482.752 409.908 482.776 409.844 482.824 409.796C482.888 409.732 482.96 409.7 483.04 409.7H485.248C485.328 409.7 485.392 409.732 485.44 409.796C485.504 409.844 485.536 409.908 485.536 409.988V421.46C485.536 422.5 485.312 423.42 484.864 424.22C484.432 425.004 483.816 425.612 483.016 426.044C482.216 426.476 481.288 426.692 480.232 426.692ZM490.569 426.5C490.489 426.5 490.417 426.476 490.353 426.428C490.305 426.364 490.281 426.292 490.281 426.212V409.988C490.281 409.908 490.305 409.844 490.353 409.796C490.417 409.732 490.489 409.7 490.569 409.7H495.537C497.089 409.7 498.329 410.132 499.257 410.996C500.201 411.86 500.673 413.012 500.673 414.452V421.748C500.673 423.188 500.201 424.34 499.257 425.204C498.329 426.068 497.089 426.5 495.537 426.5H490.569ZM493.065 423.98C493.065 424.06 493.105 424.1 493.185 424.1L495.561 424.076C496.249 424.076 496.801 423.844 497.217 423.38C497.633 422.9 497.857 422.252 497.889 421.436V414.764C497.889 413.948 497.673 413.3 497.241 412.82C496.825 412.34 496.265 412.1 495.561 412.1H493.185C493.105 412.1 493.065 412.14 493.065 412.22V423.98ZM505.567 426.5C505.487 426.5 505.415 426.476 505.351 426.428C505.303 426.364 505.279 426.292 505.279 426.212V409.988C505.279 409.908 505.303 409.844 505.351 409.796C505.415 409.732 505.487 409.7 505.567 409.7H507.775C507.855 409.7 507.919 409.732 507.967 409.796C508.031 409.844 508.063 409.908 508.063 409.988V426.212C508.063 426.292 508.031 426.364 507.967 426.428C507.919 426.476 507.855 426.5 507.775 426.5H505.567ZM518.003 426.716C516.947 426.716 516.011 426.5 515.195 426.068C514.395 425.636 513.771 425.028 513.323 424.244C512.891 423.444 512.675 422.524 512.675 421.484V414.716C512.675 413.692 512.891 412.788 513.323 412.004C513.771 411.204 514.395 410.588 515.195 410.156C516.011 409.724 516.947 409.508 518.003 409.508C519.075 409.508 520.011 409.724 520.811 410.156C521.627 410.588 522.259 411.204 522.707 412.004C523.155 412.788 523.379 413.692 523.379 414.716V421.484C523.379 422.524 523.155 423.444 522.707 424.244C522.259 425.028 521.627 425.636 520.811 426.068C520.011 426.5 519.075 426.716 518.003 426.716ZM518.003 424.316C518.787 424.316 519.411 424.068 519.875 423.572C520.355 423.06 520.595 422.404 520.595 421.604V414.644C520.595 413.828 520.355 413.172 519.875 412.676C519.411 412.164 518.787 411.908 518.003 411.908C517.235 411.908 516.619 412.164 516.155 412.676C515.691 413.172 515.459 413.828 515.459 414.644V421.604C515.459 422.404 515.691 423.06 516.155 423.572C516.619 424.068 517.235 424.316 518.003 424.316Z" fill="#6664B8"/>
<defs>
<linearGradient id="paint0_linear_7046_147507" x1="2000" y1="392" x2="-525.626" y2="404.078" gradientUnits="userSpaceOnUse">
<stop offset="0.539722" stop-color="#6664B8"/>
<stop offset="0.817588" stop-color="#9B71C1"/>
</linearGradient>
</defs>
</svg>
