<svg width="1720" height="740" viewBox="0 0 1720 740" fill="none" xmlns="http://www.w3.org/2000/svg">
<path d="M123.9 85C124.9 85 125.7 85.4 126.3 86.2C127.1 86.8 127.5 87.6 127.5 88.6V111.4C127.5 112.4 127.1 113.3 126.3 114.1C125.7 114.7 124.9 115 123.9 115H85.8C84.8 115 84.3 115.5 84.3 116.5V291.4C84.3 292.4 83.9 293.3 83.1 294.1C82.5 294.7 81.7 295 80.7 295H53.1C52.1 295 51.2 294.7 50.4 294.1C49.8 293.3 49.5 292.4 49.5 291.4V116.5C49.5 115.5 49 115 48 115H12C11 115 10.1 114.7 9.3 114.1C8.7 113.3 8.4 112.4 8.4 111.4V88.6C8.4 87.6 8.7 86.8 9.3 86.2C10.1 85.4 11 85 12 85H123.9ZM246.689 295C244.289 295 242.989 293.9 242.789 291.7L237.089 260.2C237.089 259.2 236.489 258.7 235.289 258.7H191.489C190.289 258.7 189.689 259.2 189.689 260.2L183.989 291.7C183.789 293.9 182.489 295 180.089 295H152.789C149.989 295 148.889 293.7 149.489 291.1L193.889 88.3C194.289 86.1 195.589 85 197.789 85H229.589C231.789 85 233.089 86.1 233.489 88.3L277.889 291.1V292.3C277.889 294.1 276.789 295 274.589 295H246.689ZM195.089 229.9C194.889 230.9 195.389 231.4 196.589 231.4H229.889C231.089 231.4 231.589 230.9 231.389 229.9L213.989 135.1C213.789 134.5 213.489 134.2 213.089 134.2C212.689 134.2 212.389 134.5 212.189 135.1L195.089 229.9ZM325.905 295C324.905 295 324.005 294.7 323.205 294.1C322.605 293.3 322.305 292.4 322.305 291.4V88.6C322.305 87.6 322.605 86.8 323.205 86.2C324.005 85.4 324.905 85 325.905 85H353.505C354.505 85 355.305 85.4 355.905 86.2C356.705 86.8 357.105 87.6 357.105 88.6V263.5C357.105 264.5 357.605 265 358.605 265H423.405C424.405 265 425.205 265.4 425.805 266.2C426.605 266.8 427.005 267.6 427.005 268.6V291.4C427.005 292.4 426.605 293.3 425.805 294.1C425.205 294.7 424.405 295 423.405 295H325.905ZM474.417 295C473.417 295 472.517 294.7 471.717 294.1C471.117 293.3 470.817 292.4 470.817 291.4V88.6C470.817 87.6 471.117 86.8 471.717 86.2C472.517 85.4 473.417 85 474.417 85H502.017C503.017 85 503.817 85.4 504.417 86.2C505.217 86.8 505.617 87.6 505.617 88.6V171.4C505.617 172.2 505.817 172.7 506.217 172.9C506.617 172.9 507.017 172.6 507.417 172L552.417 87.7C553.417 85.9 554.917 85 556.917 85H586.617C588.017 85 588.917 85.4 589.317 86.2C589.717 87 589.617 88 589.017 89.2L544.017 173.5C543.817 174.3 543.717 174.9 543.717 175.3L592.317 290.8C592.517 291.2 592.617 291.8 592.617 292.6C592.617 294.2 591.617 295 589.617 295H559.917C557.717 295 556.317 294.1 555.717 292.3L520.317 205.6C520.117 205 519.817 204.8 519.417 205C519.017 205 518.617 205.2 518.217 205.6L506.217 225.7C505.817 226.5 505.617 227.1 505.617 227.5V291.4C505.617 292.4 505.217 293.3 504.417 294.1C503.817 294.7 503.017 295 502.017 295H474.417ZM641.386 295C640.386 295 639.486 294.7 638.686 294.1C638.086 293.3 637.786 292.4 637.786 291.4V88.6C637.786 87.6 638.086 86.8 638.686 86.2C639.486 85.4 640.386 85 641.386 85H668.986C669.986 85 670.786 85.4 671.386 86.2C672.186 86.8 672.586 87.6 672.586 88.6V291.4C672.586 292.4 672.186 293.3 671.386 294.1C670.786 294.7 669.986 295 668.986 295H641.386ZM814.076 88.6C814.076 87.6 814.376 86.8 814.976 86.2C815.776 85.4 816.676 85 817.676 85H844.976C845.976 85 846.776 85.4 847.376 86.2C848.176 86.8 848.576 87.6 848.576 88.6V291.4C848.576 292.4 848.176 293.3 847.376 294.1C846.776 294.7 845.976 295 844.976 295H813.476C811.476 295 810.176 294 809.576 292L764.876 164.8C764.676 164.2 764.276 164 763.676 164.2C763.276 164.2 763.076 164.5 763.076 165.1L763.376 291.4C763.376 292.4 762.976 293.3 762.176 294.1C761.576 294.7 760.776 295 759.776 295H732.476C731.476 295 730.576 294.7 729.776 294.1C729.176 293.3 728.876 292.4 728.876 291.4V88.6C728.876 87.6 729.176 86.8 729.776 86.2C730.576 85.4 731.476 85 732.476 85H763.376C765.376 85 766.676 86 767.276 88L812.276 214.3C812.476 214.9 812.776 215.2 813.176 215.2C813.776 215 814.076 214.6 814.076 214V88.6ZM957.727 297.4C940.727 297.4 927.027 292.5 916.627 282.7C906.427 272.7 901.327 259.5 901.327 243.1V136.9C901.327 120.5 906.427 107.4 916.627 97.6C927.027 87.6 940.727 82.6 957.727 82.6C974.727 82.6 988.427 87.6 998.827 97.6C1009.43 107.4 1014.73 120.6 1014.73 137.2V148.9C1014.73 149.9 1014.33 150.8 1013.53 151.6C1012.93 152.2 1012.13 152.5 1011.13 152.5H983.527C982.527 152.5 981.627 152.2 980.827 151.6C980.227 150.8 979.927 149.9 979.927 148.9V136.6C979.927 129.4 977.827 123.6 973.627 119.2C969.627 114.8 964.327 112.6 957.727 112.6C951.127 112.6 945.827 114.8 941.827 119.2C937.827 123.6 935.827 129.4 935.827 136.6V243.4C935.827 250.6 937.827 256.4 941.827 260.8C945.827 265.2 951.127 267.4 957.727 267.4C964.327 267.4 969.627 265.2 973.627 260.8C977.827 256.4 979.927 250.6 979.927 243.4V214.6C979.927 213.6 979.427 213.1 978.427 213.1H960.127C959.127 213.1 958.227 212.8 957.427 212.2C956.827 211.4 956.527 210.5 956.527 209.5V187.6C956.527 186.6 956.827 185.8 957.427 185.2C958.227 184.4 959.127 184 960.127 184H1011.13C1012.13 184 1012.93 184.4 1013.53 185.2C1014.33 185.8 1014.73 186.6 1014.73 187.6V243.1C1014.73 259.5 1009.43 272.7 998.827 282.7C988.427 292.5 974.727 297.4 957.727 297.4ZM65.7 657.4C49.1 657.4 35.7 652.4 25.5 642.4C15.3 632.4 10.2 619.3 10.2 603.1V595.3C10.2 594.3 10.5 593.5 11.1 592.9C11.9 592.1 12.8 591.7 13.8 591.7H41.1C42.1 591.7 42.9 592.1 43.5 592.9C44.3 593.5 44.7 594.3 44.7 595.3V601.3C44.7 609.1 46.6 615.4 50.4 620.2C54.4 625 59.5 627.4 65.7 627.4C71.9 627.4 77 625.2 81 620.8C85 616.2 87 610.2 87 602.8C87 597.6 85.9 593.1 83.7 589.3C81.5 585.5 78.4 581.9 74.4 578.5C70.4 575.1 64 570.2 55.2 563.8C45.2 556.6 37.1 550.2 30.9 544.6C24.9 539 19.8 532.3 15.6 524.5C11.6 516.5 9.6 507.3 9.6 496.9C9.6 480.3 14.6 467.1 24.6 457.3C34.6 447.5 47.8 442.6 64.2 442.6C80.8 442.6 94.2 447.8 104.4 458.2C114.6 468.4 119.7 482 119.7 499V506.2C119.7 507.2 119.3 508.1 118.5 508.9C117.9 509.5 117.1 509.8 116.1 509.8H89.1C88.1 509.8 87.2 509.5 86.4 508.9C85.8 508.1 85.5 507.2 85.5 506.2V498.4C85.5 490.6 83.5 484.4 79.5 479.8C75.7 475 70.6 472.6 64.2 472.6C58.2 472.6 53.3 474.8 49.5 479.2C45.7 483.4 43.8 489.3 43.8 496.9C43.8 504.1 45.8 510.2 49.8 515.2C54 520.2 62.1 527.1 74.1 535.9C86.3 544.9 95.5 552.3 101.7 558.1C107.9 563.7 112.7 569.9 116.1 576.7C119.5 583.5 121.2 591.6 121.2 601C121.2 618 116.1 631.7 105.9 642.1C95.7 652.3 82.3 657.4 65.7 657.4ZM223.078 657.4C206.078 657.4 192.378 652.3 181.978 642.1C171.778 631.7 166.678 618 166.678 601V498.7C166.678 481.5 171.778 467.9 181.978 457.9C192.378 447.7 206.078 442.6 223.078 442.6C240.278 442.6 254.078 447.7 264.478 457.9C274.878 467.9 280.078 481.5 280.078 498.7V502.3C280.078 503.3 279.678 504.2 278.878 505C278.278 505.8 277.478 506.2 276.478 506.2L248.578 507.4C246.178 507.4 244.978 506.2 244.978 503.8V496.3C244.978 489.3 242.978 483.6 238.978 479.2C234.978 474.8 229.678 472.6 223.078 472.6C216.678 472.6 211.478 474.8 207.478 479.2C203.478 483.6 201.478 489.3 201.478 496.3V603.7C201.478 610.7 203.478 616.4 207.478 620.8C211.478 625.2 216.678 627.4 223.078 627.4C229.678 627.4 234.978 625.2 238.978 620.8C242.978 616.4 244.978 610.7 244.978 603.7V596.2C244.978 595.2 245.278 594.4 245.878 593.8C246.678 593 247.578 592.6 248.578 592.6L276.478 593.8C277.478 593.8 278.278 594.2 278.878 595C279.678 595.6 280.078 596.4 280.078 597.4V601C280.078 618 274.878 631.7 264.478 642.1C254.078 652.3 240.278 657.4 223.078 657.4ZM414.488 655C412.488 655 411.188 654 410.588 652L385.088 565.9C384.688 565.1 384.188 564.7 383.588 564.7H367.688C366.688 564.7 366.188 565.2 366.188 566.2V651.4C366.188 652.4 365.788 653.3 364.988 654.1C364.388 654.7 363.588 655 362.588 655H334.987C333.988 655 333.088 654.7 332.288 654.1C331.688 653.3 331.388 652.4 331.388 651.4V448.6C331.388 447.6 331.688 446.8 332.288 446.2C333.088 445.4 333.988 445 334.987 445H391.388C401.988 445 411.288 447.6 419.288 452.8C427.488 457.8 433.788 465 438.188 474.4C442.788 483.6 445.088 494.2 445.088 506.2C445.088 518.6 442.688 529.3 437.888 538.3C433.088 547.3 426.388 554.1 417.788 558.7C416.988 558.9 416.688 559.5 416.888 560.5L446.288 650.8C446.488 651.2 446.588 651.7 446.588 652.3C446.588 654.1 445.488 655 443.288 655H414.488ZM367.688 475C366.688 475 366.188 475.5 366.188 476.5V536.2C366.188 537.2 366.688 537.7 367.688 537.7H385.988C393.188 537.7 398.988 534.9 403.387 529.3C407.988 523.7 410.288 516.1 410.288 506.5C410.288 496.9 407.988 489.3 403.387 483.7C398.988 477.9 393.188 475 385.988 475H367.688ZM497.269 655C496.269 655 495.369 654.7 494.569 654.1C493.969 653.3 493.669 652.4 493.669 651.4V448.6C493.669 447.6 493.969 446.8 494.569 446.2C495.369 445.4 496.269 445 497.269 445H524.869C525.869 445 526.669 445.4 527.269 446.2C528.069 446.8 528.469 447.6 528.469 448.6V651.4C528.469 652.4 528.069 653.3 527.269 654.1C526.669 654.7 525.869 655 524.869 655H497.269ZM644.459 444.7C655.059 444.7 664.359 447.3 672.359 452.5C680.559 457.7 686.859 465 691.259 474.4C695.859 483.8 698.159 494.5 698.159 506.5C698.159 524.5 693.359 539 683.759 550C674.359 561 661.859 566.5 646.259 566.5H620.759C619.759 566.5 619.259 567 619.259 568V651.4C619.259 652.4 618.859 653.3 618.059 654.1C617.459 654.7 616.659 655 615.659 655H588.059C587.059 655 586.159 654.7 585.359 654.1C584.759 653.3 584.459 652.4 584.459 651.4V448.3C584.459 447.3 584.759 446.5 585.359 445.9C586.159 445.1 587.059 444.7 588.059 444.7H644.459ZM638.759 539.2C646.159 539.2 652.059 536.4 656.459 530.8C661.059 525 663.359 517.2 663.359 507.4C663.359 497.4 661.059 489.5 656.459 483.7C652.059 477.7 646.159 474.7 638.759 474.7H620.759C619.759 474.7 619.259 475.2 619.259 476.2V537.7C619.259 538.7 619.759 539.2 620.759 539.2H638.759ZM853.568 445C854.568 445 855.368 445.4 855.968 446.2C856.768 446.8 857.168 447.6 857.168 448.6V471.4C857.168 472.4 856.768 473.3 855.968 474.1C855.368 474.7 854.568 475 853.568 475H815.468C814.468 475 813.968 475.5 813.968 476.5V651.4C813.968 652.4 813.568 653.3 812.768 654.1C812.168 654.7 811.368 655 810.368 655H782.768C781.768 655 780.868 654.7 780.068 654.1C779.468 653.3 779.168 652.4 779.168 651.4V476.5C779.168 475.5 778.668 475 777.668 475H741.668C740.668 475 739.768 474.7 738.968 474.1C738.368 473.3 738.068 472.4 738.068 471.4V448.6C738.068 447.6 738.368 446.8 738.968 446.2C739.768 445.4 740.668 445 741.668 445H853.568ZM955.013 657.4C938.413 657.4 925.013 652.4 914.813 642.4C904.613 632.4 899.513 619.3 899.513 603.1V595.3C899.513 594.3 899.813 593.5 900.413 592.9C901.213 592.1 902.113 591.7 903.113 591.7H930.413C931.413 591.7 932.213 592.1 932.813 592.9C933.613 593.5 934.013 594.3 934.013 595.3V601.3C934.013 609.1 935.913 615.4 939.713 620.2C943.713 625 948.813 627.4 955.013 627.4C961.213 627.4 966.313 625.2 970.313 620.8C974.313 616.2 976.313 610.2 976.313 602.8C976.313 597.6 975.213 593.1 973.013 589.3C970.813 585.5 967.713 581.9 963.713 578.5C959.713 575.1 953.313 570.2 944.513 563.8C934.513 556.6 926.413 550.2 920.213 544.6C914.213 539 909.113 532.3 904.913 524.5C900.913 516.5 898.913 507.3 898.913 496.9C898.913 480.3 903.913 467.1 913.913 457.3C923.913 447.5 937.113 442.6 953.513 442.6C970.113 442.6 983.513 447.8 993.713 458.2C1003.91 468.4 1009.01 482 1009.01 499V506.2C1009.01 507.2 1008.61 508.1 1007.81 508.9C1007.21 509.5 1006.41 509.8 1005.41 509.8H978.413C977.413 509.8 976.513 509.5 975.713 508.9C975.113 508.1 974.813 507.2 974.813 506.2V498.4C974.813 490.6 972.813 484.4 968.813 479.8C965.013 475 959.913 472.6 953.513 472.6C947.513 472.6 942.613 474.8 938.813 479.2C935.013 483.4 933.113 489.3 933.113 496.9C933.113 504.1 935.113 510.2 939.113 515.2C943.313 520.2 951.413 527.1 963.413 535.9C975.613 544.9 984.813 552.3 991.013 558.1C997.213 563.7 1002.01 569.9 1005.41 576.7C1008.81 583.5 1010.51 591.6 1010.51 601C1010.51 618 1005.41 631.7 995.213 642.1C985.013 652.3 971.613 657.4 955.013 657.4Z" fill="white"/>
<path d="M1238 252.141C1280.1 291.426 1339.03 393.569 1238 487.855" stroke="white" stroke-width="80" stroke-linecap="round"/>
<path d="M1376.91 134.286C1453.15 208.929 1559.89 403 1376.91 582.143" stroke="white" stroke-width="80" stroke-linecap="round"/>
<path d="M1528.46 40C1642.81 150 1802.92 436 1528.46 700" stroke="white" stroke-opacity="0.49" stroke-width="80" stroke-linecap="round"/>
</svg>
