<svg width="170" height="38" viewBox="0 0 170 38" fill="none" xmlns="http://www.w3.org/2000/svg">
<path d="M1.82568 13.3242C3.73489 15.106 6.40779 19.7386 1.82568 24.0149" stroke="white" stroke-width="3.62836" stroke-linecap="round"/>
<path d="M8.12598 7.98047C11.5837 11.3659 16.4246 20.1679 8.12598 28.2928" stroke="white" stroke-width="3.62836" stroke-linecap="round"/>
<path d="M14.999 3.70312C20.1857 8.69213 27.447 21.6635 14.999 33.6371" stroke="white" stroke-opacity="0.49" stroke-width="3.62836" stroke-linecap="round"/>
<path d="M39.829 2.50417C39.8929 2.50417 39.9441 2.52972 39.9824 2.58084C40.0335 2.61917 40.0591 2.67029 40.0591 2.73418V4.19096C40.0591 4.25486 40.0335 4.31236 39.9824 4.36348C39.9441 4.40181 39.8929 4.42098 39.829 4.42098H37.3947C37.3308 4.42098 37.2988 4.45293 37.2988 4.51682V15.6919C37.2988 15.7558 37.2733 15.8133 37.2222 15.8644C37.1838 15.9027 37.1327 15.9219 37.0688 15.9219H35.3054C35.2415 15.9219 35.184 15.9027 35.1328 15.8644C35.0945 15.8133 35.0753 15.7558 35.0753 15.6919V4.51682C35.0753 4.45293 35.0434 4.42098 34.9795 4.42098H32.6793C32.6154 4.42098 32.5579 4.40181 32.5068 4.36348C32.4685 4.31236 32.4493 4.25486 32.4493 4.19096V2.73418C32.4493 2.67029 32.4685 2.61917 32.5068 2.58084C32.5579 2.52972 32.6154 2.50417 32.6793 2.50417H39.829ZM47.6745 15.9219C47.5212 15.9219 47.4381 15.8516 47.4253 15.711L47.0611 13.6984C47.0611 13.6345 47.0228 13.6025 46.9461 13.6025H44.1476C44.0709 13.6025 44.0326 13.6345 44.0326 13.6984L43.6684 15.711C43.6556 15.8516 43.5725 15.9219 43.4192 15.9219H41.6749C41.496 15.9219 41.4257 15.8388 41.464 15.6727L44.3009 2.71502C44.3265 2.57445 44.4095 2.50417 44.5501 2.50417H46.5819C46.7225 2.50417 46.8056 2.57445 46.8311 2.71502L49.668 15.6727V15.7494C49.668 15.8644 49.5977 15.9219 49.4572 15.9219H47.6745ZM44.3776 11.7624C44.3648 11.8263 44.3968 11.8582 44.4734 11.8582H46.6011C46.6778 11.8582 46.7097 11.8263 46.6969 11.7624L45.5852 5.70525C45.5724 5.66691 45.5532 5.64774 45.5277 5.64774C45.5021 5.64774 45.483 5.66691 45.4702 5.70525L44.3776 11.7624ZM52.736 15.9219C52.6721 15.9219 52.6146 15.9027 52.5634 15.8644C52.5251 15.8133 52.5059 15.7558 52.5059 15.6919V2.73418C52.5059 2.67029 52.5251 2.61917 52.5634 2.58084C52.6146 2.52972 52.6721 2.50417 52.736 2.50417H54.4994C54.5633 2.50417 54.6144 2.52972 54.6528 2.58084C54.7039 2.61917 54.7294 2.67029 54.7294 2.73418V13.9092C54.7294 13.9731 54.7614 14.0051 54.8253 14.0051H58.9656C59.0295 14.0051 59.0806 14.0306 59.119 14.0817C59.1701 14.1201 59.1956 14.1712 59.1956 14.2351V15.6919C59.1956 15.7558 59.1701 15.8133 59.119 15.8644C59.0806 15.9027 59.0295 15.9219 58.9656 15.9219H52.736ZM62.2249 15.9219C62.161 15.9219 62.1035 15.9027 62.0524 15.8644C62.0141 15.8133 61.9949 15.7558 61.9949 15.6919V2.73418C61.9949 2.67029 62.0141 2.61917 62.0524 2.58084C62.1035 2.52972 62.161 2.50417 62.2249 2.50417H63.9884C64.0523 2.50417 64.1034 2.52972 64.1418 2.58084C64.1929 2.61917 64.2184 2.67029 64.2184 2.73418V8.02459C64.2184 8.07571 64.2312 8.10766 64.2568 8.12044C64.2823 8.12044 64.3079 8.10127 64.3334 8.06293L67.2087 2.67668C67.2726 2.56167 67.3684 2.50417 67.4962 2.50417H69.3938C69.4833 2.50417 69.5408 2.52972 69.5663 2.58084C69.5919 2.63195 69.5855 2.69585 69.5472 2.77252L66.672 8.15877C66.6592 8.20989 66.6528 8.24822 66.6528 8.27378L69.758 15.6535C69.7708 15.6791 69.7772 15.7174 69.7772 15.7685C69.7772 15.8708 69.7133 15.9219 69.5855 15.9219H67.6879C67.5473 15.9219 67.4578 15.8644 67.4195 15.7494L65.1577 10.2098C65.1449 10.1714 65.1257 10.1586 65.1002 10.1714C65.0746 10.1714 65.049 10.1842 65.0235 10.2098L64.2568 11.494C64.2312 11.5451 64.2184 11.5835 64.2184 11.609V15.6919C64.2184 15.7558 64.1929 15.8133 64.1418 15.8644C64.1034 15.9027 64.0523 15.9219 63.9884 15.9219H62.2249ZM72.8932 15.9219C72.8293 15.9219 72.7718 15.9027 72.7207 15.8644C72.6824 15.8133 72.6632 15.7558 72.6632 15.6919V2.73418C72.6632 2.67029 72.6824 2.61917 72.7207 2.58084C72.7718 2.52972 72.8293 2.50417 72.8932 2.50417H74.6567C74.7206 2.50417 74.7717 2.52972 74.81 2.58084C74.8611 2.61917 74.8867 2.67029 74.8867 2.73418V15.6919C74.8867 15.7558 74.8611 15.8133 74.81 15.8644C74.7717 15.9027 74.7206 15.9219 74.6567 15.9219H72.8932ZM83.927 2.73418C83.927 2.67029 83.9462 2.61917 83.9845 2.58084C84.0357 2.52972 84.0932 2.50417 84.1571 2.50417H85.9014C85.9652 2.50417 86.0164 2.52972 86.0547 2.58084C86.1058 2.61917 86.1314 2.67029 86.1314 2.73418V15.6919C86.1314 15.7558 86.1058 15.8133 86.0547 15.8644C86.0164 15.9027 85.9652 15.9219 85.9014 15.9219H83.8887C83.7609 15.9219 83.6778 15.858 83.6395 15.7302L80.7835 7.6029C80.7707 7.56456 80.7451 7.55178 80.7068 7.56456C80.6812 7.56456 80.6684 7.58373 80.6684 7.62206L80.6876 15.6919C80.6876 15.7558 80.6621 15.8133 80.6109 15.8644C80.5726 15.9027 80.5215 15.9219 80.4576 15.9219H78.7133C78.6494 15.9219 78.5919 15.9027 78.5408 15.8644C78.5024 15.8133 78.4833 15.7558 78.4833 15.6919V2.73418C78.4833 2.67029 78.5024 2.61917 78.5408 2.58084C78.5919 2.52972 78.6494 2.50417 78.7133 2.50417H80.6876C80.8154 2.50417 80.8985 2.56806 80.9368 2.69585L83.812 10.7656C83.8248 10.804 83.844 10.8231 83.8695 10.8231C83.9079 10.8104 83.927 10.7848 83.927 10.7465V2.73418ZM93.1054 16.0752C92.0192 16.0752 91.1439 15.7621 90.4794 15.136C89.8277 14.497 89.5018 13.6536 89.5018 12.6058V5.82026C89.5018 4.7724 89.8277 3.93539 90.4794 3.30923C91.1439 2.67029 92.0192 2.35082 93.1054 2.35082C94.1916 2.35082 95.067 2.67029 95.7315 3.30923C96.4088 3.93539 96.7474 4.77879 96.7474 5.83942V6.58698C96.7474 6.65088 96.7218 6.70838 96.6707 6.7595C96.6324 6.79783 96.5813 6.817 96.5174 6.817H94.7539C94.69 6.817 94.6325 6.79783 94.5814 6.7595C94.543 6.70838 94.5239 6.65088 94.5239 6.58698V5.80109C94.5239 5.34105 94.3897 4.97047 94.1214 4.68934C93.8658 4.4082 93.5271 4.26764 93.1054 4.26764C92.6837 4.26764 92.3451 4.4082 92.0895 4.68934C91.834 4.97047 91.7062 5.34105 91.7062 5.80109V12.625C91.7062 13.085 91.834 13.4556 92.0895 13.7367C92.3451 14.0178 92.6837 14.1584 93.1054 14.1584C93.5271 14.1584 93.8658 14.0178 94.1214 13.7367C94.3897 13.4556 94.5239 13.085 94.5239 12.625V10.7848C94.5239 10.7209 94.4919 10.689 94.428 10.689H93.2588C93.1949 10.689 93.1374 10.6698 93.0863 10.6315C93.0479 10.5803 93.0288 10.5228 93.0288 10.459V9.05968C93.0288 8.99578 93.0479 8.94467 93.0863 8.90633C93.1374 8.85521 93.1949 8.82966 93.2588 8.82966H96.5174C96.5813 8.82966 96.6324 8.85521 96.6707 8.90633C96.7218 8.94467 96.7474 8.99578 96.7474 9.05968V12.6058C96.7474 13.6536 96.4088 14.497 95.7315 15.136C95.067 15.7621 94.1916 16.0752 93.1054 16.0752ZM108.653 16.0752C107.592 16.0752 106.736 15.7558 106.084 15.1168C105.433 14.4779 105.107 13.6409 105.107 12.6058V12.1074C105.107 12.0435 105.126 11.9924 105.164 11.9541C105.215 11.903 105.273 11.8774 105.337 11.8774H107.081C107.145 11.8774 107.196 11.903 107.234 11.9541C107.286 11.9924 107.311 12.0435 107.311 12.1074V12.4908C107.311 12.9891 107.433 13.3917 107.675 13.6984C107.931 14.0051 108.257 14.1584 108.653 14.1584C109.049 14.1584 109.375 14.0178 109.63 13.7367C109.886 13.4428 110.014 13.0594 110.014 12.5866C110.014 12.2544 109.944 11.9668 109.803 11.724C109.662 11.4813 109.464 11.2512 109.209 11.034C108.953 10.8168 108.544 10.5037 107.982 10.0948C107.343 9.63472 106.826 9.2258 106.429 8.86799C106.046 8.51019 105.72 8.0821 105.452 7.58373C105.196 7.07258 105.068 6.48475 105.068 5.82026C105.068 4.75962 105.388 3.91622 106.027 3.29006C106.666 2.6639 107.509 2.35082 108.557 2.35082C109.618 2.35082 110.474 2.68307 111.126 3.34756C111.777 3.99928 112.103 4.86824 112.103 5.95443V6.41447C112.103 6.47836 112.078 6.53587 112.026 6.58698C111.988 6.62532 111.937 6.64449 111.873 6.64449H110.148C110.084 6.64449 110.027 6.62532 109.976 6.58698C109.937 6.53587 109.918 6.47836 109.918 6.41447V5.9161C109.918 5.41772 109.79 5.02158 109.535 4.72767C109.292 4.42098 108.966 4.26764 108.557 4.26764C108.174 4.26764 107.861 4.4082 107.618 4.68934C107.375 4.95769 107.254 5.33466 107.254 5.82026C107.254 6.28029 107.381 6.67004 107.637 6.98951C107.905 7.30898 108.423 7.74985 109.19 8.31212C109.969 8.88716 110.557 9.35998 110.953 9.73056C111.349 10.0884 111.656 10.4845 111.873 10.919C112.09 11.3535 112.199 11.871 112.199 12.4716C112.199 13.5578 111.873 14.4331 111.221 15.0976C110.57 15.7494 109.714 16.0752 108.653 16.0752ZM118.708 16.0752C117.622 16.0752 116.747 15.7494 116.082 15.0976C115.431 14.4331 115.105 13.5578 115.105 12.4716V5.93527C115.105 4.83629 115.431 3.96733 116.082 3.3284C116.747 2.67668 117.622 2.35082 118.708 2.35082C119.807 2.35082 120.689 2.67668 121.354 3.3284C122.018 3.96733 122.35 4.83629 122.35 5.93527V6.16528C122.35 6.22918 122.325 6.28668 122.274 6.3378C122.235 6.38891 122.184 6.41447 122.12 6.41447L120.338 6.49114C120.184 6.49114 120.108 6.41447 120.108 6.26112V5.78192C120.108 5.33466 119.98 4.97047 119.724 4.68934C119.469 4.4082 119.13 4.26764 118.708 4.26764C118.299 4.26764 117.967 4.4082 117.712 4.68934C117.456 4.97047 117.328 5.33466 117.328 5.78192V12.6441C117.328 13.0914 117.456 13.4556 117.712 13.7367C117.967 14.0178 118.299 14.1584 118.708 14.1584C119.13 14.1584 119.469 14.0178 119.724 13.7367C119.98 13.4556 120.108 13.0914 120.108 12.6441V12.1649C120.108 12.101 120.127 12.0499 120.165 12.0116C120.216 11.9605 120.274 11.9349 120.338 11.9349L122.12 12.0116C122.184 12.0116 122.235 12.0371 122.274 12.0882C122.325 12.1266 122.35 12.1777 122.35 12.2416V12.4716C122.35 13.5578 122.018 14.4331 121.354 15.0976C120.689 15.7494 119.807 16.0752 118.708 16.0752ZM130.938 15.9219C130.811 15.9219 130.727 15.858 130.689 15.7302L129.06 10.2289C129.034 10.1778 129.002 10.1523 128.964 10.1523H127.948C127.884 10.1523 127.852 10.1842 127.852 10.2481V15.6919C127.852 15.7558 127.827 15.8133 127.776 15.8644C127.737 15.9027 127.686 15.9219 127.622 15.9219H125.859C125.795 15.9219 125.737 15.9027 125.686 15.8644C125.648 15.8133 125.629 15.7558 125.629 15.6919V2.73418C125.629 2.67029 125.648 2.61917 125.686 2.58084C125.737 2.52972 125.795 2.50417 125.859 2.50417H129.462C130.14 2.50417 130.734 2.67029 131.245 3.00254C131.769 3.32201 132.171 3.78204 132.453 4.38264C132.746 4.97047 132.893 5.64774 132.893 6.41447C132.893 7.20675 132.74 7.89042 132.433 8.46546C132.127 9.04051 131.699 9.47499 131.149 9.7689C131.098 9.78168 131.079 9.82001 131.092 9.88391L132.97 15.6535C132.983 15.6791 132.989 15.711 132.989 15.7494C132.989 15.8644 132.919 15.9219 132.778 15.9219H130.938ZM127.948 4.42098C127.884 4.42098 127.852 4.45293 127.852 4.51682V8.33128C127.852 8.39518 127.884 8.42713 127.948 8.42713H129.117C129.577 8.42713 129.948 8.24822 130.229 7.89042C130.523 7.53261 130.67 7.04702 130.67 6.43364C130.67 5.82026 130.523 5.33466 130.229 4.97686C129.948 4.60627 129.577 4.42098 129.117 4.42098H127.948ZM136.228 15.9219C136.164 15.9219 136.106 15.9027 136.055 15.8644C136.017 15.8133 135.997 15.7558 135.997 15.6919V2.73418C135.997 2.67029 136.017 2.61917 136.055 2.58084C136.106 2.52972 136.164 2.50417 136.228 2.50417H137.991C138.055 2.50417 138.106 2.52972 138.144 2.58084C138.195 2.61917 138.221 2.67029 138.221 2.73418V15.6919C138.221 15.7558 138.195 15.8133 138.144 15.8644C138.106 15.9027 138.055 15.9219 137.991 15.9219H136.228ZM145.632 2.485C146.309 2.485 146.904 2.65112 147.415 2.98337C147.939 3.31562 148.341 3.78204 148.622 4.38264C148.916 4.98325 149.063 5.66691 149.063 6.43364C149.063 7.58373 148.756 8.51019 148.143 9.21302C147.542 9.91585 146.744 10.2673 145.747 10.2673H144.118C144.054 10.2673 144.022 10.2992 144.022 10.3631V15.6919C144.022 15.7558 143.996 15.8133 143.945 15.8644C143.907 15.9027 143.856 15.9219 143.792 15.9219H142.028C141.965 15.9219 141.907 15.9027 141.856 15.8644C141.818 15.8133 141.798 15.7558 141.798 15.6919V2.71502C141.798 2.65112 141.818 2.60001 141.856 2.56167C141.907 2.51055 141.965 2.485 142.028 2.485H145.632ZM145.268 8.52297C145.741 8.52297 146.118 8.34406 146.399 7.98626C146.693 7.61567 146.84 7.1173 146.84 6.49114C146.84 5.8522 146.693 5.34744 146.399 4.97686C146.118 4.59349 145.741 4.40181 145.268 4.40181H144.118C144.054 4.40181 144.022 4.43376 144.022 4.49765V8.42713C144.022 8.49102 144.054 8.52297 144.118 8.52297H145.268ZM158.993 2.50417C159.057 2.50417 159.108 2.52972 159.146 2.58084C159.197 2.61917 159.223 2.67029 159.223 2.73418V4.19096C159.223 4.25486 159.197 4.31236 159.146 4.36348C159.108 4.40181 159.057 4.42098 158.993 4.42098H156.558C156.495 4.42098 156.463 4.45293 156.463 4.51682V15.6919C156.463 15.7558 156.437 15.8133 156.386 15.8644C156.348 15.9027 156.297 15.9219 156.233 15.9219H154.469C154.405 15.9219 154.348 15.9027 154.297 15.8644C154.258 15.8133 154.239 15.7558 154.239 15.6919V4.51682C154.239 4.45293 154.207 4.42098 154.143 4.42098H151.843C151.779 4.42098 151.722 4.40181 151.671 4.36348C151.632 4.31236 151.613 4.25486 151.613 4.19096V2.73418C151.613 2.67029 151.632 2.61917 151.671 2.58084C151.722 2.52972 151.779 2.50417 151.843 2.50417H158.993ZM165.475 16.0752C164.414 16.0752 163.558 15.7558 162.906 15.1168C162.254 14.4779 161.928 13.6409 161.928 12.6058V12.1074C161.928 12.0435 161.948 11.9924 161.986 11.9541C162.037 11.903 162.095 11.8774 162.158 11.8774H163.903C163.967 11.8774 164.018 11.903 164.056 11.9541C164.107 11.9924 164.133 12.0435 164.133 12.1074V12.4908C164.133 12.9891 164.254 13.3917 164.497 13.6984C164.753 14.0051 165.078 14.1584 165.475 14.1584C165.871 14.1584 166.197 14.0178 166.452 13.7367C166.708 13.4428 166.835 13.0594 166.835 12.5866C166.835 12.2544 166.765 11.9668 166.625 11.724C166.484 11.4813 166.286 11.2512 166.03 11.034C165.775 10.8168 165.366 10.5037 164.804 10.0948C164.165 9.63472 163.647 9.2258 163.251 8.86799C162.868 8.51019 162.542 8.0821 162.273 7.58373C162.018 7.07258 161.89 6.48475 161.89 5.82026C161.89 4.75962 162.21 3.91622 162.848 3.29006C163.487 2.6639 164.331 2.35082 165.379 2.35082C166.439 2.35082 167.295 2.68307 167.947 3.34756C168.599 3.99928 168.925 4.86824 168.925 5.95443V6.41447C168.925 6.47836 168.899 6.53587 168.848 6.58698C168.81 6.62532 168.759 6.64449 168.695 6.64449H166.97C166.906 6.64449 166.848 6.62532 166.797 6.58698C166.759 6.53587 166.74 6.47836 166.74 6.41447V5.9161C166.74 5.41772 166.612 5.02158 166.356 4.72767C166.113 4.42098 165.788 4.26764 165.379 4.26764C164.995 4.26764 164.682 4.4082 164.439 4.68934C164.197 4.95769 164.075 5.33466 164.075 5.82026C164.075 6.28029 164.203 6.67004 164.459 6.98951C164.727 7.30898 165.244 7.74985 166.011 8.31212C166.791 8.88716 167.379 9.35998 167.775 9.73056C168.171 10.0884 168.478 10.4845 168.695 10.919C168.912 11.3535 169.021 11.871 169.021 12.4716C169.021 13.5578 168.695 14.4331 168.043 15.0976C167.391 15.7494 166.535 16.0752 165.475 16.0752Z" fill="white"/>
<rect x="31.9126" y="22.7695" width="138" height="11.6511" rx="5.82554" fill="white"/>
<path d="M77.7227 32.6814C77.2408 32.6814 76.8173 32.5974 76.4521 32.4295C76.087 32.2542 75.8023 32.0096 75.5978 31.6956C75.4006 31.3743 75.3021 31.0055 75.3021 30.5893V30.3045C75.3021 30.268 75.313 30.2388 75.3349 30.2169C75.3641 30.1877 75.397 30.1731 75.4335 30.1731H76.4193C76.4558 30.1731 76.485 30.1877 76.5069 30.2169C76.5361 30.2388 76.5507 30.268 76.5507 30.3045V30.5236C76.5507 30.8376 76.6603 31.0932 76.8793 31.2903C77.0984 31.4875 77.3941 31.5861 77.7665 31.5861C78.1097 31.5861 78.3726 31.4984 78.5552 31.3232C78.7377 31.1479 78.829 30.9179 78.829 30.6331C78.829 30.436 78.7779 30.268 78.6757 30.1293C78.5734 29.9832 78.4274 29.8518 78.2375 29.735C78.055 29.6108 77.7702 29.4465 77.3832 29.2421C76.9377 29.0084 76.5799 28.8003 76.3098 28.6177C76.0396 28.4352 75.8096 28.2015 75.6197 27.9167C75.4371 27.6319 75.3459 27.2851 75.3459 26.8762C75.3459 26.2482 75.554 25.7516 75.9702 25.3865C76.3937 25.0214 76.9487 24.8389 77.6351 24.8389C78.1097 24.8389 78.5296 24.9301 78.8947 25.1127C79.2598 25.2879 79.541 25.5399 79.7381 25.8685C79.9353 26.1971 80.0339 26.5731 80.0339 26.9966V27.2267C80.0339 27.2632 80.0193 27.296 79.99 27.3252C79.9681 27.3472 79.9389 27.3581 79.9024 27.3581H78.9166C78.8801 27.3581 78.8473 27.3472 78.818 27.3252C78.7961 27.296 78.7852 27.2632 78.7852 27.2267V27.0186C78.7852 26.7046 78.6793 26.4453 78.4675 26.2409C78.2558 26.0364 77.971 25.9342 77.6132 25.9342C77.2992 25.9342 77.0509 26.0182 76.8684 26.1861C76.6858 26.3468 76.5945 26.5731 76.5945 26.8652C76.5945 27.0624 76.642 27.2303 76.7369 27.3691C76.8319 27.5078 76.9743 27.6392 77.1641 27.7634C77.3613 27.8875 77.657 28.0482 78.0513 28.2453C78.5771 28.5447 78.9641 28.7784 79.2124 28.9463C79.4606 29.1143 79.6687 29.3333 79.8367 29.6035C80.0119 29.8664 80.0996 30.1913 80.0996 30.5784C80.0996 31.2209 79.8842 31.7321 79.4533 32.1118C79.0225 32.4915 78.4456 32.6814 77.7227 32.6814ZM89.6174 24.9265C89.6539 24.9265 89.6831 24.9411 89.705 24.9703C89.7343 24.9922 89.7489 25.0214 89.7489 25.0579V25.9013C89.7489 25.9378 89.7343 25.9707 89.705 25.9999C89.6831 26.0218 89.6539 26.0328 89.6174 26.0328H87.9197C87.8832 26.0328 87.8649 26.051 87.8649 26.0875V32.4623C87.8649 32.4988 87.8503 32.5317 87.8211 32.5609C87.7992 32.5828 87.77 32.5938 87.7335 32.5938H86.7258C86.6893 32.5938 86.6564 32.5828 86.6272 32.5609C86.6053 32.5317 86.5943 32.4988 86.5943 32.4623V26.0875C86.5943 26.051 86.5761 26.0328 86.5396 26.0328H84.9075C84.871 26.0328 84.8382 26.0218 84.809 25.9999C84.787 25.9707 84.7761 25.9378 84.7761 25.9013V25.0579C84.7761 25.0214 84.787 24.9922 84.809 24.9703C84.8382 24.9411 84.871 24.9265 84.9075 24.9265H89.6174ZM97.182 32.6814C96.7074 32.6814 96.2875 32.5828 95.9224 32.3856C95.5573 32.1885 95.2725 31.911 95.068 31.5532C94.8709 31.1881 94.7723 30.7682 94.7723 30.2936V25.0579C94.7723 25.0214 94.7832 24.9922 94.8051 24.9703C94.8344 24.9411 94.8672 24.9265 94.9037 24.9265H95.9114C95.9479 24.9265 95.9771 24.9411 95.999 24.9703C96.0283 24.9922 96.0429 25.0214 96.0429 25.0579V30.3593C96.0429 30.7244 96.1451 31.0201 96.3495 31.2465C96.5613 31.4729 96.8388 31.5861 97.182 31.5861C97.5252 31.5861 97.8027 31.4729 98.0144 31.2465C98.2262 31.0201 98.3321 30.7244 98.3321 30.3593V25.0579C98.3321 25.0214 98.343 24.9922 98.3649 24.9703C98.3942 24.9411 98.427 24.9265 98.4635 24.9265H99.4712C99.5077 24.9265 99.5369 24.9411 99.5588 24.9703C99.5881 24.9922 99.6027 25.0214 99.6027 25.0579V30.2936C99.6027 30.7682 99.5004 31.1881 99.296 31.5532C99.0988 31.911 98.8177 32.1885 98.4526 32.3856C98.0875 32.5828 97.6639 32.6814 97.182 32.6814ZM105.076 32.5938C105.04 32.5938 105.007 32.5828 104.978 32.5609C104.956 32.5317 104.945 32.4988 104.945 32.4623V25.0579C104.945 25.0214 104.956 24.9922 104.978 24.9703C105.007 24.9411 105.04 24.9265 105.076 24.9265H107.344C108.052 24.9265 108.618 25.1236 109.041 25.518C109.472 25.9123 109.688 26.438 109.688 27.0952V30.425C109.688 31.0822 109.472 31.608 109.041 32.0023C108.618 32.3966 108.052 32.5938 107.344 32.5938H105.076ZM106.216 31.4437C106.216 31.4802 106.234 31.4984 106.27 31.4984L107.355 31.4875C107.669 31.4875 107.921 31.3816 108.11 31.1698C108.3 30.9508 108.402 30.655 108.417 30.2826V27.2376C108.417 26.8652 108.319 26.5695 108.121 26.3504C107.932 26.1313 107.676 26.0218 107.355 26.0218H106.27C106.234 26.0218 106.216 26.0401 106.216 26.0766V31.4437ZM115.098 32.5938C115.061 32.5938 115.028 32.5828 114.999 32.5609C114.977 32.5317 114.966 32.4988 114.966 32.4623V25.0579C114.966 25.0214 114.977 24.9922 114.999 24.9703C115.028 24.9411 115.061 24.9265 115.098 24.9265H116.105C116.142 24.9265 116.171 24.9411 116.193 24.9703C116.222 24.9922 116.237 25.0214 116.237 25.0579V32.4623C116.237 32.4988 116.222 32.5317 116.193 32.5609C116.171 32.5828 116.142 32.5938 116.105 32.5938H115.098ZM123.95 32.6923C123.468 32.6923 123.041 32.5938 122.668 32.3966C122.303 32.1994 122.018 31.922 121.814 31.5641C121.617 31.199 121.518 30.7792 121.518 30.3045V27.2157C121.518 26.7484 121.617 26.3358 121.814 25.978C122.018 25.6129 122.303 25.3318 122.668 25.1346C123.041 24.9374 123.468 24.8389 123.95 24.8389C124.439 24.8389 124.866 24.9374 125.231 25.1346C125.604 25.3318 125.892 25.6129 126.097 25.978C126.301 26.3358 126.403 26.7484 126.403 27.2157V30.3045C126.403 30.7792 126.301 31.199 126.097 31.5641C125.892 31.922 125.604 32.1994 125.231 32.3966C124.866 32.5938 124.439 32.6923 123.95 32.6923ZM123.95 31.597C124.308 31.597 124.592 31.4838 124.804 31.2575C125.023 31.0238 125.133 30.7244 125.133 30.3593V27.1829C125.133 26.8104 125.023 26.5111 124.804 26.2847C124.592 26.051 124.308 25.9342 123.95 25.9342C123.599 25.9342 123.318 26.051 123.106 26.2847C122.895 26.5111 122.789 26.8104 122.789 27.1829V30.3593C122.789 30.7244 122.895 31.0238 123.106 31.2575C123.318 31.4838 123.599 31.597 123.95 31.597Z" fill="#6664B8"/>
</svg>
